<svg id="_0015_calendar" xmlns="http://www.w3.org/2000/svg" viewBox="0 0 500 500" data-imageid="calendar-31" imageName="Calendar" class="illustrations_image" style="width: 166px;"><defs><style>.cls-1_calendar-31{opacity:.45;}.cls-1_calendar-31,.cls-2_calendar-31{fill:#e6e6e6;}.cls-3_calendar-31,.cls-4_calendar-31{fill:#fff;}.cls-5_calendar-31{fill:#f4a28c;}.cls-6_calendar-31{fill:#a5a5a5;}.cls-7_calendar-31{fill:#000001;opacity:.11;}.cls-4_calendar-31{opacity:.2;}.cls-8_calendar-31{fill:#24285b;}.cls-9_calendar-31{fill:#ffd200;}.cls-10_calendar-31{fill:#68e1fd;}</style></defs><ellipse id="sd_calendar-31" class="cls-1_calendar-31" cx="261.39" cy="399.73" rx="214.78" ry="30.88"/><g id="calendar_person_calendar-31"><path class="cls-10_calendar-31 targetColor" d="m102.42,170.41s29.81-15.23,63.47-3.68c33.66,11.55-31.73,30.67-31.73,30.67l-31.73-26.99Z"/><path class="cls-7_calendar-31" d="m102.42,170.41s29.81-15.23,63.47-3.68c33.66,11.55-31.73,30.67-31.73,30.67l-31.73-26.99Z"/><path class="cls-10_calendar-31 targetColor" d="m66.08,181.45s-20.41,11.74-25.51,40.81,64.77,68.34,64.77,68.34l43.35-32.56s25.78-113.55-64.88-83.08l-17.72,6.49Z"/><rect class="cls-2_calendar-31" x="130.13" y="116.35" width="254.91" height="283.37"/><rect class="cls-8_calendar-31" x="317.47" y="276.96" width="34.43" height="31.81"/><rect class="cls-6_calendar-31" x="317.47" y="324.01" width="34.43" height="31.81"/><polygon class="cls-8_calendar-31" points="105.33 290.6 134.85 329.87 130.13 271.98 105.33 290.6"/><rect class="cls-10_calendar-31 targetColor" x="130.13" y="95.75" width="254.91" height="70.98"/><rect class="cls-9_calendar-31" x="179.38" y="69.39" width="20.44" height="61.85"/><rect class="cls-7_calendar-31" x="199.82" y="95.28" width="13.5" height="35.96"/><rect class="cls-7_calendar-31" x="334.69" y="95.28" width="13.5" height="35.96"/><rect class="cls-9_calendar-31" x="314.24" y="69.39" width="20.44" height="61.85"/><rect class="cls-8_calendar-31" x="167.76" y="195" width="55.95" height="16.92"/><rect class="cls-3_calendar-31" x="169.44" y="230.2" width="34.43" height="31.81"/><rect class="cls-7_calendar-31" x="219.41" y="230.2" width="34.43" height="31.81"/><rect class="cls-9_calendar-31" x="268.88" y="230.2" width="34.43" height="31.81"/><rect class="cls-8_calendar-31" x="317.47" y="230.2" width="34.43" height="31.81"/><path class="cls-3_calendar-31" d="m65.14,182.05s-.86,11.15,9.34,16.5c10.2,5.35,9.21-8.25,9.21-8.25,0,0,3.73,4.01,9.63-1.26s-7.97-14.95-7.97-14.95l-20.2,7.96Z"/><rect class="cls-3_calendar-31" x="169.44" y="276.96" width="34.43" height="31.81"/><rect class="cls-7_calendar-31" x="219.41" y="276.96" width="34.43" height="31.81"/><rect class="cls-7_calendar-31" x="268.88" y="276.96" width="34.43" height="31.81"/><rect class="cls-3_calendar-31" x="169.44" y="324.01" width="34.43" height="31.81"/><rect class="cls-7_calendar-31" x="219.41" y="324.01" width="34.43" height="31.81"/><rect class="cls-7_calendar-31" x="268.88" y="324.01" width="34.43" height="31.81"/><path class="cls-5_calendar-31" d="m81.05,169.74c.79,2.32,1.64,4.62,2.69,6.84,1.44,3.04,2.76,7.98-1.51,11.27-6.59,5.08-14.43-5.43-14.43-5.43,0,0-10.12-8.43-3-13.96,6.41-4.97,12.61-9.36,16.25,1.28Z"/><path class="cls-8_calendar-31" d="m56.75,167.17c-1.33,1.59-2.23,3.51-2.17,5.58.05,1.94.7,4.03,2.91,5.08,4.78,2.25,10.31,4.59,10.31,4.59,0,0-5.43-4.87,0-6.98s11.51-.29,13.25-5.7c1.74-5.41,3.04-8.5,0-11.87-3.04-3.37-4.72-8.43-9.78-3.94-5.06,4.5-4.52-.95-9-2.58-4.49-1.63-9.76.9-7.69,4.83,1.82,3.44,4.84,7.82,2.18,10.99Z"/><path class="cls-10_calendar-31 targetColor" d="m74.46,216.43c-3.35-14.69-23.15-17.68-31.22-4.96-10.12,15.96-22.99,42.14-18.49,66.9,7.14,39.27,37.8,73.95,109.42,51.51v-11.73s-25.23,5.4-47.12-2.92c-22.09-8.4-31.82-34.39-21.54-55.66,5.95-12.32,12.08-29.42,8.95-43.13Z"/><path class="cls-4_calendar-31" d="m74.46,216.43c-3.35-14.69-23.15-17.68-31.22-4.96-10.12,15.96-22.99,42.14-18.49,66.9,7.14,39.27,37.8,73.95,109.42,51.51v-11.73s-25.23,5.4-47.12-2.92c-22.09-8.4-31.82-34.39-21.54-55.66,5.95-12.32,12.08-29.42,8.95-43.13Z"/><path class="cls-5_calendar-31" d="m134.18,329.87s-10.75-6.63-4.05-16.57c6.7-9.94,20.15,3.31,4.05,16.57Z"/><rect class="cls-7_calendar-31" x="130.13" y="166.73" width="254.91" height="14.72"/><path class="cls-5_calendar-31" d="m68.49,182.64s-2.21-3.28-5.18-1.57,1.58,7.63,5.18,1.57Z"/><path class="cls-5_calendar-31" d="m82.67,177.22s-2.79-2.81-.54-5.39,7.18,3.03.54,5.39Z"/><path class="cls-5_calendar-31" d="m227.22,95.75s8.16-12.16,17.34-6.08c9.18,6.08,1.02,14.2-17.34,6.08Z"/><path class="cls-7_calendar-31" d="m102.42,170.41s41.61,65.36-16.09,108.2l19,11.99,24.79-18.63-.34-97.78s-6.21-7.05-27.37-3.78Z"/></g><g id="pencil_calendar-31"><rect class="cls-9_calendar-31" x="388.52" y="146.53" width="33.81" height="214.13" transform="translate(617.35 682.27) rotate(-148.33)"/><polygon class="cls-5_calendar-31" points="363.6 353.6 323.26 386.81 334.83 335.85 363.6 353.6"/><polygon class="cls-8_calendar-31" points="341.59 371.71 328.51 363.65 323.26 386.81 341.59 371.71"/><rect class="cls-7_calendar-31" x="403.55" y="150.77" width="17.49" height="214.13" transform="translate(627.86 693.73) rotate(-148.33)"/><polygon class="cls-8_calendar-31" points="425 189.66 454.25 206.49 475.95 171.3 447.24 153.59 425 189.66"/></g></svg>