<svg id="_0393_credit_card_1" xmlns="http://www.w3.org/2000/svg" viewBox="0 0 500 500" data-imageid="credit-card-1-16" imageName="Credit Card 1" class="illustrations_image" style="width: 166px;"><defs><style>.cls-1_credit-card-1-16,.cls-2_credit-card-1-16,.cls-3_credit-card-1-16{fill:#fff;}.cls-4_credit-card-1-16{fill:#a5a5a5;}.cls-2_credit-card-1-16,.cls-5_credit-card-1-16{opacity:.54;}.cls-3_credit-card-1-16{opacity:.1;}.cls-5_credit-card-1-16{fill:none;}.cls-6_credit-card-1-16,.cls-7_credit-card-1-16{fill:#e6e6e6;}.cls-7_credit-card-1-16{opacity:.1;}.cls-8_credit-card-1-16{fill:#24285b;}.cls-9_credit-card-1-16{fill:#ffd200;}.cls-10_credit-card-1-16{fill:#68e1fd;}</style></defs><path id="bg_credit-card-1-16" class="cls-7_credit-card-1-16" d="m455.45,185.7c-34.06-72.46-76.83-116.67-139.79-138.94-59.17-20.93-131.38-18.19-187.52,15.97-25.34,15.42-48.15,38.12-66.4,66.1-20.07,30.76-34.71,68.38-39.2,108.64-4.49,40.26,1.67,83.12,19.34,116.37,18.03,33.94,46.63,55.93,76.52,68.14,49.44,20.21,100.44,14.29,150.42,29.5,35.85,10.91,72.93,19.76,109.26,12.19,36.33-7.57,72.22-34.31,88.15-78.35,9.45-26.12,11.22-55.84,12.21-84.78.72-20.93,1.08-42.26-3.22-62.41-4.03-18.87-11.94-35.79-19.76-52.43Z"/><g id="card3_credit-card-1-16"><rect class="cls-8_credit-card-1-16" x="34.91" y="103.98" width="323.54" height="200.77" rx="11.17" ry="11.17"/><rect class="cls-3_credit-card-1-16" x="59.72" y="162.79" width="80.01" height="52.45" rx="8.39" ry="8.39"/><circle class="cls-3_credit-card-1-16" cx="278" cy="189.01" r="21.78"/><circle class="cls-3_credit-card-1-16" cx="311.86" cy="189.01" r="21.78"/><rect class="cls-3_credit-card-1-16" x="59.72" y="252.43" width="60.65" height="15.56"/><rect class="cls-3_credit-card-1-16" x="130.81" y="252.43" width="60.65" height="15.56"/><rect class="cls-3_credit-card-1-16" x="201.9" y="252.43" width="60.65" height="15.56"/><rect class="cls-3_credit-card-1-16" x="273" y="252.43" width="60.65" height="15.56"/></g><g id="card2_credit-card-1-16"><rect class="cls-9_credit-card-1-16" x="86.41" y="147.93" width="323.54" height="200.77" rx="11.17" ry="11.17"/><rect class="cls-2_credit-card-1-16" x="111.22" y="206.74" width="80.01" height="52.45" rx="8.39" ry="8.39"/><circle class="cls-2_credit-card-1-16" cx="329.5" cy="232.96" r="21.78"/><circle class="cls-2_credit-card-1-16" cx="363.37" cy="232.96" r="21.78"/><g class="cls-5_credit-card-1-16"><rect class="cls-1_credit-card-1-16" x="111.22" y="296.38" width="60.65" height="15.56"/><rect class="cls-1_credit-card-1-16" x="182.31" y="296.38" width="60.65" height="15.56"/><rect class="cls-1_credit-card-1-16" x="253.41" y="296.38" width="60.65" height="15.56"/><rect class="cls-1_credit-card-1-16" x="324.5" y="296.38" width="60.65" height="15.56"/></g></g><g id="note_credit-card-1-16"><polygon class="cls-6_credit-card-1-16" points="334.9 110.93 334.9 286.01 177.54 286.01 177.54 110.93 184.68 125.18 191.84 110.93 198.98 125.18 206.15 110.93 213.31 125.18 220.45 110.93 227.61 125.18 234.75 110.93 241.92 125.18 249.06 110.93 256.22 125.18 263.36 110.93 270.52 125.18 277.69 110.93 284.83 125.18 291.99 110.93 299.13 125.18 306.29 110.93 313.43 125.18 320.6 110.93 327.74 125.18 334.9 110.93"/><rect class="cls-4_credit-card-1-16" x="195.09" y="135.84" width="46.65" height="3.19"/><rect class="cls-4_credit-card-1-16" x="274.89" y="135.84" width="42.46" height="3.19"/><rect class="cls-4_credit-card-1-16" x="195.09" y="151.49" width="27.31" height="3.19"/><rect class="cls-4_credit-card-1-16" x="274.89" y="151.49" width="42.46" height="3.19"/><rect class="cls-4_credit-card-1-16" x="277.31" y="167.15" width="40.04" height="3.19"/><rect class="cls-4_credit-card-1-16" x="195.09" y="167.15" width="34.9" height="3.19"/><rect class="cls-4_credit-card-1-16" x="195.09" y="182.8" width="41.12" height="3.19"/><rect class="cls-4_credit-card-1-16" x="275.93" y="182.8" width="41.42" height="3.19"/><rect class="cls-4_credit-card-1-16" x="195.09" y="198.46" width="26.27" height="3.19"/><rect class="cls-4_credit-card-1-16" x="277.31" y="198.46" width="40.04" height="3.19"/><rect class="cls-4_credit-card-1-16" x="195.09" y="214.11" width="122.26" height="3.19"/><rect class="cls-4_credit-card-1-16" x="262.11" y="229.77" width="55.24" height="3.19"/></g><g id="card1_credit-card-1-16"><rect class="cls-10_credit-card-1-16 targetColor" x="141.55" y="195.25" width="323.54" height="200.77" rx="11.17" ry="11.17"/><rect class="cls-2_credit-card-1-16" x="166.36" y="254.05" width="80.01" height="52.45" rx="8.39" ry="8.39"/><circle class="cls-2_credit-card-1-16" cx="384.64" cy="280.28" r="21.78"/><circle class="cls-2_credit-card-1-16" cx="418.5" cy="280.28" r="21.78"/><g class="cls-5_credit-card-1-16"><rect class="cls-1_credit-card-1-16" x="166.36" y="343.69" width="60.65" height="15.56"/><rect class="cls-1_credit-card-1-16" x="237.45" y="343.69" width="60.65" height="15.56"/><rect class="cls-1_credit-card-1-16" x="308.54" y="343.69" width="60.65" height="15.56"/><rect class="cls-1_credit-card-1-16" x="379.63" y="343.69" width="60.65" height="15.56"/></g></g></svg>