<svg id="_0392_credit_card" xmlns="http://www.w3.org/2000/svg" viewBox="0 0 500 500" data-imageid="credit-card-38" imageName="Credit Card" class="illustrations_image" style="width: 166px;"><defs><style>.cls-1_credit-card-38,.cls-2_credit-card-38{fill:#fff;}.cls-3_credit-card-38{fill:#f4a28c;}.cls-4_credit-card-38{fill:#a5a5a5;}.cls-2_credit-card-38,.cls-5_credit-card-38{opacity:.54;}.cls-6_credit-card-38{opacity:.03;}.cls-6_credit-card-38,.cls-7_credit-card-38{fill:#000001;}.cls-5_credit-card-38{fill:none;}.cls-8_credit-card-38{fill:#e6e6e6;}.cls-7_credit-card-38{opacity:.09;}.cls-9_credit-card-38{fill:#ce8172;opacity:.31;}.cls-10_credit-card-38{opacity:.58;}.cls-10_credit-card-38,.cls-11_credit-card-38,.cls-12_credit-card-38{fill:#68e1fd;}.cls-13_credit-card-38{fill:#24285b;}.cls-11_credit-card-38{opacity:.73;}.cls-14_credit-card-38{fill:#ffd200;}</style></defs><ellipse id="bg_credit-card-38" class="cls-6_credit-card-38" cx="250" cy="435.81" rx="239.83" ry="17.72"/><rect id="card_credit-card-38" class="cls-12_credit-card-38" x="390.09" y="143.53" width="99.74" height="129.09"/><g id="phone_credit-card-38"><rect class="cls-8_credit-card-38" x="214.55" y="55.7" width="202.85" height="380.1"/><rect class="cls-1_credit-card-38" x="232" y="71.78" width="167.96" height="316.52" rx="5.06" ry="5.06"/><circle class="cls-4_credit-card-38" cx="315.98" cy="409.23" r="11.13"/><polygon class="cls-7_credit-card-38" points="214.55 315.69 318.99 269.95 214.55 269.95 214.55 315.69"/></g><g id="person_credit-card-38"><path class="cls-3_credit-card-38" d="m120.58,198.94s-5.23,42.67,34.69,67.31l21.43-19.38-36.69-72.87-19.42,24.94Z"/><polygon class="cls-3_credit-card-38" points="99.59 303.5 155.24 424.27 164.38 423.08 138.96 294.46 99.59 303.5"/><path class="cls-3_credit-card-38" d="m65.99,292.32l14.58,50.33-37.57-22.37-5.55,8.49s40.7,50.47,66.89,40.67c26.19-9.79-1.58-90.95-1.58-90.95l-36.77,13.82Z"/><path class="cls-13_credit-card-38" d="m75.65,209.62l52.85,19.13,18.03,89.74-78.78,4.71s-36.52-44.7,7.9-113.58Z"/><path class="cls-12_credit-card-38" d="m163.71,423.17s5.88,5.74,12.29,4.58c6.41-1.15,8.54,7.84-1.96,8.25-4.01.16-7.27-.06-9.78-.4-2.98-.4-5.92.3-8.71,1.45-.87.36-1.92.28-3.11-.79-3.4-3.08,2.8-11.98,2.8-11.98l8.47-1.1Z"/><path class="cls-12_credit-card-38" d="m38.29,328.89s-8.17.87-11.36,6.55c-3.2,5.68-11.49,1.58-5.11-6.77,2.43-3.19,4.68-5.56,6.54-7.28,2.21-2.05,3.54-4.76,4.44-7.63.28-.9,1.01-1.66,2.6-1.89,4.53-.66,7.61,8.41,7.61,8.41l-4.71,8.61Z"/><polygon class="cls-3_credit-card-38" points="117.64 66.07 106.78 104.35 128.31 108.83 127.56 79.17 117.64 66.07"/><path class="cls-7_credit-card-38" d="m165.97,146.55s16.05,22.77,2.98,39.14c-13.07,16.37-40.64,21.05-40.64,21.05l37.66-60.19Z"/><path class="cls-9_credit-card-38" d="m128,85.66s-3.93-1.3-6.56-5.05c0,0-.55,7.26,6.54,15.34l.02-10.3Z"/><path class="cls-3_credit-card-38" d="m139.93,67.18s-1.08,12.1-4.49,19.66c-1.38,3.07-5.05,4.45-8.1,3.03-3.79-1.77-8.39-5.27-8.6-11.82l-1.72-11.08s-.83-6.98,6.77-10.63c7.6-3.65,17.17,3.51,16.14,10.84Z"/><path class="cls-3_credit-card-38" d="m125.41,75.16s.73-4.62-2.79-4.88c-3.52-.26-4.61,6.41-.02,7.86l2.82-2.99Z"/><path class="cls-3_credit-card-38" d="m138.86,74.77l2.51,5.2c.62,1.28-.31,2.78-1.73,2.79l-4.72.05,3.94-8.04Z"/><path class="cls-12_credit-card-38" d="m128.31,108.83s51.69,22.95,35.25,58.51c-11.91,25.77-25.5,20.13-30.2,40.93l-4.86,20.47-52.85-19.13s8.05-29.9,5.7-50.18c-2.35-20.28-10.11-70.87,46.95-50.61Z"/><path class="cls-14_credit-card-38" d="m318.99,143.53h-167.69c-5.4,0-9.77,4.37-9.77,9.77v106.88c0,5.4,4.37,9.77,9.77,9.77h167.69v-126.42Z"/><rect class="cls-2_credit-card-38" x="157.15" y="180.56" width="50.38" height="33.03" rx="4.69" ry="4.69"/><circle class="cls-2_credit-card-38" cx="294.6" cy="197.07" r="13.71"/><path class="cls-2_credit-card-38" d="m318.99,183.72c-.99-.23-2.02-.36-3.08-.36-7.57,0-13.71,6.14-13.71,13.71s6.14,13.71,13.71,13.71c1.06,0,2.09-.13,3.08-.36v-26.71Z"/><g class="cls-5_credit-card-38"><rect class="cls-1_credit-card-38" x="157.15" y="237" width="38.19" height="9.8"/><rect class="cls-1_credit-card-38" x="201.92" y="237" width="38.19" height="9.8"/><rect class="cls-1_credit-card-38" x="246.68" y="237" width="38.19" height="9.8"/><rect class="cls-1_credit-card-38" x="291.44" y="237" width="27.55" height="9.8"/></g><path class="cls-7_credit-card-38" d="m113.5,119.68s20.78,27.77,6.05,59.01c-10.62,22.51.91,28.82-2,33.9l-26.92,2.45-14.97-5.42,2.83-12.58,35.01-77.35Z"/><path class="cls-7_credit-card-38" d="m174.14,179.14s12.05.33,5.82,16.92c-6.23,16.59-29.28,45.72-60.88,49.34-31.6,3.62-41.47-20.8-31.6-38.47,0,0,1.56,18.22,24.42,8.07,22.86-10.15,62.24-35.86,62.24-35.86Z"/><path class="cls-14_credit-card-38" d="m122.61,70.28s7.2,38-5.62,42.36c-12.82,4.36-32.95-1.18-32.62-16.7s15.76-16.27,20.13-37.2c4.37-20.93,44.3-11.29,42.28.83-2.01,12.13-24.17,10.7-24.17,10.7Z"/><path class="cls-3_credit-card-38" d="m114.55,123.25c-3.33-15.63-23.47-20.06-32.98-7.22-5.54,7.48-9.27,18.23-5.91,33.16,8.14,36.12-3.21,80.53,22.98,83.65,26.2,3.12,68.15-38.45,68.15-38.45l-5.59-10.13s-37.93,25.71-49.88,21.04c-9.27-3.63,9.9-50.69,3.22-82.05Z"/><path class="cls-3_credit-card-38" d="m161.2,184.27s6.56-14.55,12.4-11.24c5.85,3.31,3.32,15.26-6.82,21.37l-5.59-10.13Z"/><path class="cls-3_credit-card-38" d="m192.07,270s15.16,7.42,16.03-2.68c.87-10.1-13.86-7.06-16.03,2.68Z"/></g><g id="plant_credit-card-38"><path class="cls-10_credit-card-38" d="m444.66,416.55s-14.57-3.98-17.74-17.54c0,0,22.58-4.56,23.22,18.74l-5.48-1.2Z"/><path class="cls-11_credit-card-38" d="m446.45,415.11s-10.18-16.09-1.22-31.14c0,0,17.17,10.9,9.54,31.18l-8.32-.03Z"/><path class="cls-12_credit-card-38" d="m449.07,415.12s5.38-17,21.64-20.21c0,0,3.05,11.04-10.53,20.26l-11.11-.05Z"/><polygon class="cls-13_credit-card-38" points="438.5 414.74 441.46 434.94 460.06 435.02 462.8 414.84 438.5 414.74"/></g></svg>