<svg id="_0252_money_transfer_2" xmlns="http://www.w3.org/2000/svg" viewBox="0 0 500 500" data-imageid="money-transfer-2-56" imageName="Money Transfer 2" class="illustrations_image" style="width: 166px;"><defs><style>.cls-1_money-transfer-2-56{fill:#fff;}.cls-2_money-transfer-2-56{fill:#f4a28c;}.cls-3_money-transfer-2-56{fill:#a5a5a5;}.cls-4_money-transfer-2-56{fill:#e6e6e6;}.cls-5_money-transfer-2-56{opacity:.03;}.cls-5_money-transfer-2-56,.cls-6_money-transfer-2-56{fill:none;}.cls-7_money-transfer-2-56{fill:#24285b;}.cls-8_money-transfer-2-56{fill:#000001;}.cls-9_money-transfer-2-56{fill:#ffd200;}.cls-6_money-transfer-2-56{opacity:.1;}.cls-10_money-transfer-2-56{fill:#68e1fd;}</style></defs><g id="bg_money-transfer-2-56"><g class="cls-5_money-transfer-2-56"><circle class="cls-8_money-transfer-2-56" cx="254.65" cy="250" r="221.78"/></g><path class="cls-3_money-transfer-2-56" d="m234.14,302.15c-1.03,0-1.89-.82-1.92-1.86-.02-.66-.03-1.3-.04-1.94-.02-1.06.83-1.93,1.89-1.95,1.02-.05,1.93.83,1.95,1.89.01.62.02,1.25.04,1.89.03,1.06-.8,1.94-1.86,1.97-.02,0-.04,0-.06,0Zm1.6-20.93c-.15,0-.3-.02-.45-.05-1.03-.25-1.67-1.28-1.42-2.31.16-.67.33-1.31.51-1.93.29-1.02,1.36-1.61,2.37-1.31,1.02.29,1.61,1.35,1.31,2.37-.16.57-.32,1.16-.46,1.76-.21.88-1,1.47-1.86,1.47Zm11.65-16.59c-.7,0-1.37-.38-1.71-1.04-.48-.94-.11-2.1.83-2.58.61-.31,1.23-.6,1.87-.87.98-.41,2.1.06,2.51,1.03.41.98-.06,2.1-1.03,2.51-.54.23-1.08.47-1.59.74-.28.14-.58.21-.87.21Zm20.54-3.95c-1.01,0-1.86-.79-1.91-1.82-.06-1.06.76-1.96,1.82-2.01l1.93-.09c1.05-.06,1.95.77,2,1.83.05,1.06-.77,1.95-1.83,2l-1.9.09s-.07,0-.1,0Zm21.05-1.36c-.96,0-1.78-.71-1.9-1.69-.13-1.05.62-2.01,1.67-2.13.62-.08,1.25-.16,1.87-.24,1.05-.15,2.02.59,2.16,1.64s-.59,2.02-1.64,2.16c-.65.09-1.29.17-1.93.25-.08,0-.16.01-.23.01Zm20.48-4.8c-.78,0-1.51-.48-1.8-1.25-.37-.99.13-2.1,1.12-2.47.58-.22,1.16-.44,1.74-.68.98-.4,2.1.08,2.5,1.06.4.98-.08,2.1-1.06,2.5-.61.25-1.22.48-1.83.71-.22.08-.45.12-.67.12Zm18.36-10.18c-.56,0-1.11-.24-1.49-.71-.67-.82-.54-2.03.28-2.7.48-.39.95-.79,1.4-1.19.79-.7,2.01-.63,2.71.17.7.79.63,2.01-.17,2.71-.49.43-1,.86-1.52,1.29-.36.29-.78.43-1.21.43Zm11.7-17.1c-.16,0-.32-.02-.49-.06-1.02-.27-1.64-1.32-1.37-2.34.15-.58.28-1.16.39-1.74.2-1.04,1.19-1.72,2.24-1.52,1.04.2,1.72,1.2,1.52,2.24-.13.67-.28,1.33-.45,2-.23.86-1,1.43-1.85,1.43Zm-1.52-20.72c-.79,0-1.52-.49-1.8-1.27-.21-.58-.43-1.16-.66-1.73-.4-.98.08-2.1,1.06-2.49.98-.4,2.1.08,2.49,1.06.25.61.48,1.23.71,1.86.36,1-.16,2.1-1.15,2.45-.21.08-.43.11-.65.11Zm-10.49-18.22c-.56,0-1.11-.24-1.49-.7-.72-.88-1.16-1.36-1.18-1.38-.72-.78-.66-1.99.12-2.71.78-.72,1.99-.66,2.71.11,0,0,.5.55,1.32,1.55.67.82.55,2.03-.27,2.7-.36.29-.79.43-1.21.43Z"/></g><g id="phone1_money-transfer-2-56"><path class="cls-2_money-transfer-2-56" d="m202.45,83.03s70.69-17.04,87.1,17.27c16.41,34.32-75.73,100.81-126.63,22.57l39.53-39.85Z"/><g class="cls-6_money-transfer-2-56"><path class="cls-8_money-transfer-2-56" d="m202.45,83.03s70.69-17.04,87.1,17.27c16.41,34.32-75.73,100.81-126.63,22.57l39.53-39.85Z"/></g><rect class="cls-4_money-transfer-2-56" x="214.64" y="58.26" width="97.37" height="173.05" transform="translate(280.36 -155.24) rotate(64.45)"/><rect class="cls-1_money-transfer-2-56" x="229.53" y="76.72" width="81.54" height="129.45" transform="translate(281.31 -163.43) rotate(64.45)"/><rect class="cls-7_money-transfer-2-56" x="218.91" y="150.36" width="38.59" height="15.82" transform="translate(278.24 -124.91) rotate(64.45)"/><circle class="cls-9_money-transfer-2-56" cx="293.62" cy="130.3" r="26.67"/><path class="cls-2_money-transfer-2-56" d="m239.14,98.52s39.76,13.54,42.82,26.13c2.53,10.39-16.26,19.38-41.74,6.29-10.46-5.37-22.61-6.09-33.53-1.74-9.03,3.6-20.8,5.69-32.91.57-25.45-10.76-17.67-31.49,5.49-40.35,23.17-8.86,30.36-10.82,59.86,9.1Z"/><polygon class="cls-10_money-transfer-2-56 targetColor" points="182.27 138.37 39.69 194.31 16.31 105.13 173.42 80.47 182.27 138.37"/><g class="cls-6_money-transfer-2-56"><polygon class="cls-8_money-transfer-2-56" points="30.56 159.5 178.04 110.73 182.27 138.37 39.69 194.31 30.56 159.5"/></g><circle class="cls-3_money-transfer-2-56" cx="326.02" cy="91.14" r="2.97"/><rect class="cls-3_money-transfer-2-56" x="320.6" y="111.97" width="31.35" height="2.69" rx=".83" ry=".83" transform="translate(293.45 -238.94) rotate(64.45)"/><circle class="cls-3_money-transfer-2-56" cx="198.16" cy="173.39" r="9.47"/><path class="cls-1_money-transfer-2-56" d="m281.28,132.01l1.09-.52c-1.06-3.45-.56-6.16,1.48-8.23.74-.75,1.34-.72,2.09.02l2.46,2.43c.81.79.91,1.25.22,2.17-.79.97-.89,2.15-.05,3.91.95,1.98,1.82,2.9,3,2.33,1.09-.52.75-2.05.13-3.91-1.18-3.71-3.08-9.15,2.79-11.96,3.38-1.62,6.58-.6,9.19,3.06l1.08-.52c.93-.44,1.35-.29,1.79.63l1.57,3.29c.44.93.31,1.38-.62,1.83l-1.08.52c.83,2.97.37,5.28-1.27,7.35-.68.87-1.25.83-2.11.1l-2.85-2.44c-.8-.68-.84-1.09-.14-2.01.78-1.08.97-1.99.19-3.62-.92-1.91-1.71-2.44-2.7-1.96-1.08.52-.69,2.09-.06,4.07,1.22,3.69,3.04,8.9-2.9,11.74-3.51,1.68-6.77.53-9.39-3.08l-1.15.55c-.89.43-1.37.26-1.81-.67l-1.57-3.29c-.44-.93-.26-1.37.63-1.79Z"/></g><g id="phone2_money-transfer-2-56"><path class="cls-2_money-transfer-2-56" d="m296.86,309.83s-71.28-14.4-86.4,20.51c-15.12,34.91,79.44,97.92,127.38,17.83l-40.98-38.34Z"/><g class="cls-6_money-transfer-2-56"><path class="cls-8_money-transfer-2-56" d="m296.86,309.83s-71.28-14.4-86.4,20.51c-15.12,34.91,79.44,97.92,127.38,17.83l-40.98-38.34Z"/></g><rect class="cls-4_money-transfer-2-56" x="189.64" y="287.29" width="97.37" height="173.05" transform="translate(676.06 303.68) rotate(113.42)"/><rect class="cls-1_money-transfer-2-56" x="190.46" y="306.01" width="81.54" height="129.45" transform="translate(663.33 305.9) rotate(113.42)"/><rect class="cls-7_money-transfer-2-56" x="247.72" y="376.18" width="38.24" height="19.85" transform="translate(727.19 294.69) rotate(113.42)"/><circle class="cls-9_money-transfer-2-56" cx="213.91" cy="363.24" r="26.67"/><path class="cls-1_money-transfer-2-56" d="m222.36,372.53l-1.04-.6c-2.24,2.83-4.77,3.95-7.62,3.45-1.04-.19-1.35-.7-1.17-1.73l.61-3.4c.19-1.11.51-1.46,1.67-1.41,1.25.11,2.28-.48,3.25-2.17,1.09-1.9,1.36-3.14.22-3.79-1.04-.6-2.11.54-3.29,2.1-2.38,3.08-5.79,7.73-11.44,4.48-3.25-1.87-4.22-5.08-2.69-9.3l-1.04-.6c-.89-.51-1.01-.95-.49-1.84l1.82-3.16c.51-.89.96-1.04,1.85-.53l1.04.6c1.98-2.37,4.14-3.29,6.78-3.12,1.11.07,1.39.56,1.28,1.68l-.39,3.73c-.11,1.04-.43,1.31-1.58,1.25-1.33-.03-2.19.33-3.09,1.9-1.06,1.84-1.04,2.79-.08,3.34,1.04.6,2.11-.62,3.38-2.26,2.35-3.1,5.61-7.55,11.31-4.26,3.37,1.94,4.27,5.28,2.79,9.48l1.1.64c.86.49.99.98.48,1.87l-1.82,3.16c-.51.89-.98.99-1.83.49Z"/><path class="cls-2_money-transfer-2-56" d="m260.77,326.68s-39.23,15.01-41.82,27.71c-2.14,10.47,16.97,18.76,41.94,4.73,10.25-5.76,22.37-6.93,33.44-2.99,9.15,3.26,21,4.91,32.91-.66,25.03-11.7,16.49-32.13-6.99-40.12-23.48-7.99-30.75-9.68-59.48,11.33Z"/><polygon class="cls-7_money-transfer-2-56" points="319.08 364.38 463.65 414.97 483.69 324.97 325.77 306.19 319.08 364.38"/><g class="cls-6_money-transfer-2-56"><polygon class="cls-8_money-transfer-2-56" points="471.47 379.84 322.28 336.6 319.08 364.38 463.65 414.97 471.47 379.84"/></g><circle class="cls-3_money-transfer-2-56" cx="304.51" cy="399.97" r="9.47"/></g></svg>