<svg id="_0557_bank_note" xmlns="http://www.w3.org/2000/svg" viewBox="0 0 500 500" data-imageid="money-68" imageName="Money" class="illustrations_image" style="width: 166px;"><defs><style>.cls-1_money-68{opacity:.1;}.cls-1_money-68,.cls-2_money-68{fill:none;}.cls-3_money-68,.cls-4_money-68{fill:#fff;}.cls-5_money-68,.cls-6_money-68{fill:#e6e6e6;}.cls-6_money-68{opacity:.1;}.cls-2_money-68,.cls-7_money-68{opacity:.08;}.cls-4_money-68{opacity:.44;}.cls-7_money-68,.cls-8_money-68{fill:#000001;}.cls-9_money-68{fill:#ffd200;}.cls-10_money-68{fill:#68e1fd;}</style></defs><g id="bg_money-68"><path class="cls-6_money-68" d="m109.34,40.42C59.82,60.23,30.95,80.74,23.71,141.51c-6.1,51.21-2.54,152.82,83.31,168.95,167.04,31.37,309.85,20.62,352.36-59.82,39.52-74.79,35.59-164.09-53.23-202.92C339.32,18.51,206.06,1.73,109.34,40.42Z"/><g class="cls-1_money-68"><ellipse class="cls-5_money-68" cx="250.78" cy="421.68" rx="238.48" ry="60.49"/></g></g><g id="sparkle_money-68"><path class="cls-5_money-68" d="m257.61,182.4s-3.38,12.8-13.45,18.87c0,0,10.32-1.59,19.15,11.09,0,0,2.7-11.43,11.06-18.89,0,0-12.53-.14-16.76-11.06Z"/><path class="cls-5_money-68" d="m183.45,78.25s-3.38,12.8-13.45,18.87c0,0,10.32-1.59,19.15,11.09,0,0,2.7-11.43,11.06-18.89,0,0-12.53-.14-16.76-11.06Z"/><path class="cls-5_money-68" d="m121.52,161.55s-10.54,8.01-22.22,6.59c0,0,9.11,5.1,8.27,20.52,0,0,9.17-7.35,20.35-8.08,0,0-9.79-7.82-6.4-19.03Z"/><path class="cls-5_money-68" d="m386.03,182.83s-8.17,6.21-17.21,5.11c0,0,7.06,3.95,6.4,15.9,0,0,7.1-5.69,15.76-6.26,0,0-7.58-6.06-4.96-14.74Z"/><path class="cls-5_money-68" d="m325.79,87.08s-8.17,6.21-17.21,5.11c0,0,7.06,3.95,6.4,15.9,0,0,7.1-5.69,15.76-6.26,0,0-7.58-6.06-4.96-14.74Z"/></g><g id="money_money-68"><path class="cls-9_money-68" d="m313.94,356.55l-.03,18.86c-.01,8.55-23.85,15.44-53.23,15.39-29.38-.05-53.19-7.02-53.18-15.57l.03-18.86,106.4.18Z"/><path class="cls-9_money-68" d="m313.9,379.28l-.03,18.86c-.01,8.55-23.85,15.44-53.23,15.39-29.38-.05-53.19-7.02-53.18-15.57l.03-18.86,106.4.18Z"/><path class="cls-7_money-68" d="m313.9,379.28l-.03,18.86c-.01,8.55-23.85,15.44-53.23,15.39-29.38-.05-53.19-7.02-53.18-15.57l.03-18.86,106.4.18Z"/><ellipse class="cls-9_money-68" cx="260.18" cy="378.57" rx="15.33" ry="52.71" transform="translate(-118.83 638.11) rotate(-89.9)"/><path class="cls-7_money-68" d="m313.94,356.55l-.03,18.86c-.01,8.55-23.85,15.44-53.23,15.39-29.38-.05-53.19-7.02-53.18-15.57l.03-18.86,106.4.18Z"/><path class="cls-9_money-68" d="m310.11,334.01l-.03,18.86c-.01,8.55-23.85,15.44-53.23,15.39-29.38-.05-53.19-7.02-53.18-15.57l.03-18.86,106.4.18Z"/><path class="cls-9_money-68" d="m314.02,311.28l-.03,18.86c-.01,8.55-23.85,15.44-53.23,15.39s-53.19-7.02-53.18-15.57l.03-18.86,106.4.18Z"/><ellipse class="cls-9_money-68" cx="260.22" cy="356.04" rx="15.33" ry="52.71" transform="translate(-96.27 615.66) rotate(-89.9)"/><path class="cls-7_money-68" d="m310.11,334.01l-.03,18.86c-.01,8.55-23.85,15.44-53.23,15.39-29.38-.05-53.19-7.02-53.18-15.57l.03-18.86,106.4.18Z"/><ellipse class="cls-9_money-68" cx="256.42" cy="333.71" rx="15.33" ry="52.71" transform="translate(-77.72 589.56) rotate(-89.9)"/><path class="cls-7_money-68" d="m314.02,311.28l-.03,18.86c-.01,8.55-23.85,15.44-53.23,15.39s-53.19-7.02-53.18-15.57l.03-18.86,106.4.18Z"/><ellipse class="cls-9_money-68" cx="260.8" cy="311.19" rx="15.33" ry="53.22" transform="translate(-50.83 571.47) rotate(-89.9)"/><path class="cls-9_money-68" d="m220.79,287.25l.03,18.86c.01,8.55,23.85,15.44,53.23,15.39,29.38-.05,53.19-7.02,53.18-15.57l-.03-18.86-106.4.18Z"/><path class="cls-9_money-68" d="m216.89,264.52l.03,18.86c.01,8.55,23.85,15.44,53.23,15.39,29.38-.05,53.19-7.02,53.18-15.57l-.03-18.86-106.4.18Z"/><path class="cls-7_money-68" d="m220.79,287.25l.03,18.86c.01,8.55,23.85,15.44,53.23,15.39,29.38-.05,53.19-7.02,53.18-15.57l-.03-18.86-106.4.18Z"/><ellipse class="cls-9_money-68" cx="274.48" cy="286.95" rx="52.71" ry="15.33" transform="translate(-.48 .46) rotate(-.1)"/><path class="cls-7_money-68" d="m216.89,264.52l.03,18.86c.01,8.55,23.85,15.44,53.23,15.39,29.38-.05,53.19-7.02,53.18-15.57l-.03-18.86-106.4.18Z"/><ellipse class="cls-9_money-68" cx="270.1" cy="264.43" rx="53.22" ry="15.33" transform="translate(-.44 .45) rotate(-.1)"/><path class="cls-9_money-68" d="m445.2,361.58l-.03,18.86c-.01,8.55-23.85,15.44-53.23,15.39-29.38-.05-53.19-7.02-53.18-15.57l.03-18.86,106.4.18Z"/><path class="cls-9_money-68" d="m445.16,384.31l-.03,18.86c-.01,8.55-23.85,15.44-53.23,15.39-29.38-.05-53.19-7.02-53.18-15.57l.03-18.86,106.4.18Z"/><path class="cls-7_money-68" d="m445.16,384.31l-.03,18.86c-.01,8.55-23.85,15.44-53.23,15.39-29.38-.05-53.19-7.02-53.18-15.57l.03-18.86,106.4.18Z"/><ellipse class="cls-9_money-68" cx="391.43" cy="383.6" rx="15.33" ry="52.71" transform="translate(7.18 774.38) rotate(-89.9)"/><path class="cls-7_money-68" d="m445.2,361.58l-.03,18.86c-.01,8.55-23.85,15.44-53.23,15.39-29.38-.05-53.19-7.02-53.18-15.57l.03-18.86,106.4.18Z"/><path class="cls-9_money-68" d="m441.37,339.04l-.03,18.86c-.01,8.55-23.85,15.44-53.23,15.39-29.38-.05-53.19-7.02-53.18-15.57l.03-18.86,106.4.18Z"/><path class="cls-9_money-68" d="m445.27,316.31l-.03,18.86c-.01,8.55-23.85,15.44-53.23,15.39-29.38-.05-53.19-7.02-53.18-15.57l.03-18.86,106.4.18Z"/><ellipse class="cls-9_money-68" cx="391.47" cy="361.07" rx="15.33" ry="52.71" transform="translate(29.74 751.94) rotate(-89.9)"/><path class="cls-7_money-68" d="m441.37,339.04l-.03,18.86c-.01,8.55-23.85,15.44-53.23,15.39-29.38-.05-53.19-7.02-53.18-15.57l.03-18.86,106.4.18Z"/><ellipse class="cls-9_money-68" cx="387.67" cy="338.74" rx="15.33" ry="52.71" transform="translate(48.29 725.84) rotate(-89.9)"/><path class="cls-7_money-68" d="m445.27,316.31l-.03,18.86c-.01,8.55-23.85,15.44-53.23,15.39-29.38-.05-53.19-7.02-53.18-15.57l.03-18.86,106.4.18Z"/><path class="cls-7_money-68" d="m416.9,343.05s-41.34,12.62-34.7,75.23c0,0,26.95.91,39.75-2.38,11.44-2.94-5.05-72.86-5.05-72.86Z"/><ellipse class="cls-9_money-68" cx="392.05" cy="316.22" rx="15.33" ry="53.22" transform="translate(75.17 707.74) rotate(-89.9)"/><polygon class="cls-10_money-68 targetColor" points="206.97 353 36.07 353 50.55 336.43 192.49 336.43 206.97 353" style="fill: rgb(104, 225, 253);"/><polygon class="cls-4_money-68" points="206.97 353 36.07 353 50.55 336.43 192.49 336.43 206.97 353"/><rect class="cls-10_money-68 targetColor" x="36.07" y="353" width="170.89" height="56.84" style="fill: rgb(104, 225, 253);"/><polygon class="cls-5_money-68" points="134.14 336.43 108.9 336.43 100.08 353 142.96 353 134.14 336.43"/><rect class="cls-7_money-68" x="36.07" y="363.8" width="170.89" height="2.6"/><rect class="cls-7_money-68" x="36.07" y="375.49" width="170.89" height="2.6"/><rect class="cls-7_money-68" x="36.07" y="387.19" width="170.89" height="2.6"/><rect class="cls-7_money-68" x="36.07" y="398.88" width="170.89" height="2.6"/><rect class="cls-5_money-68" x="100.08" y="353" width="42.88" height="56.84"/><polygon class="cls-10_money-68 targetColor" points="181.63 291.31 10.74 291.31 25.21 274.74 167.16 274.74 181.63 291.31" style="fill: rgb(104, 225, 253);"/><polygon class="cls-4_money-68" points="181.63 291.31 10.74 291.31 25.21 274.74 167.16 274.74 181.63 291.31"/><rect class="cls-10_money-68 targetColor" x="10.74" y="291.31" width="170.89" height="56.84" style="fill: rgb(104, 225, 253);"/><polygon class="cls-5_money-68" points="108.8 274.74 83.57 274.74 74.75 291.31 117.62 291.31 108.8 274.74"/><rect class="cls-7_money-68" x="10.74" y="302.11" width="170.89" height="2.6"/><rect class="cls-7_money-68" x="10.74" y="313.8" width="170.89" height="2.6"/><rect class="cls-7_money-68" x="10.74" y="325.5" width="170.89" height="2.6"/><rect class="cls-7_money-68" x="10.74" y="337.19" width="170.89" height="2.6"/><rect class="cls-5_money-68" x="74.75" y="291.31" width="42.88" height="56.84"/><polygon class="cls-10_money-68 targetColor" points="206.97 229.62 36.07 229.62 50.55 213.05 192.49 213.05 206.97 229.62" style="fill: rgb(104, 225, 253);"/><polygon class="cls-4_money-68" points="206.97 229.62 36.07 229.62 50.55 213.05 192.49 213.05 206.97 229.62"/><rect class="cls-10_money-68 targetColor" x="36.07" y="229.62" width="170.89" height="56.84" style="fill: rgb(104, 225, 253);"/><polygon class="cls-5_money-68" points="134.14 213.05 108.9 213.05 100.08 229.62 142.96 229.62 134.14 213.05"/><rect class="cls-7_money-68" x="36.07" y="240.42" width="170.89" height="2.6"/><rect class="cls-7_money-68" x="36.07" y="252.11" width="170.89" height="2.6"/><rect class="cls-7_money-68" x="36.07" y="263.81" width="170.89" height="2.6"/><rect class="cls-7_money-68" x="36.07" y="275.5" width="170.89" height="2.6"/><rect class="cls-5_money-68" x="100.08" y="229.62" width="42.88" height="56.84"/><circle class="cls-7_money-68" cx="113.78" cy="389.45" r="39.49"/><circle class="cls-9_money-68" cx="113.78" cy="389.45" r="39.49"/><g class="cls-2_money-68"><circle class="cls-8_money-68" cx="113.61" cy="377.4" r="39.49"/></g><circle class="cls-7_money-68" cx="113.78" cy="389.45" r="39.49"/><circle class="cls-9_money-68" cx="113.61" cy="377.4" r="39.49"/><path class="cls-3_money-68" d="m111.79,359.78c1.1-.19,1.5.13,1.7,1.23l.41,2.34c4.51-.16,7.43,1.6,9.97,5.09.78,1.05.65,1.71-.54,2.51l-2.16,1.47c-1.01.72-1.58.57-2.4-.46-1.73-2.26-3.52-3.18-6.77-2.6-4.07.72-5.72,2.24-5.24,4.97.31,1.77,2.13,2.58,3.87,2.62.85.05,2.03.04,3.54-.08,2.72-.23,4.09-.28,6.58.12,1.27.22,2.26.54,3.09,1.03,1.56,1.01,3.18,3.19,3.72,6.25.92,5.21-1.95,9.37-7.96,11.37l.44,2.49c.19,1.1-.07,1.54-1.17,1.74l-2.63.46c-1.1.19-1.55-.12-1.74-1.22l-.43-2.44c-4.89.22-8.53-1.65-10.87-5.68-.57-.98-.31-1.77.71-2.39l2.19-1.28c1.12-.64,1.7-.45,2.43.66,1.52,2.49,3.91,3.45,7.17,2.88,4.4-.78,6.35-2.55,5.86-5.37-.26-1.48-1.09-2.27-2.58-2.6-1.48-.28-2.71-.26-4.89-.07-2.67.23-4.21.2-6.65-.26-1.22-.23-2.23-.59-3.05-1.09-1.66-1.04-3.22-3.13-3.73-6.05-.91-5.16,1.73-9.18,7.71-11.08l-.41-2.34c-.19-1.1.12-1.55,1.22-1.74l2.63-.46Z"/><path class="cls-9_money-68" d="m438.81,273.35l-.03,17.86c-.01,8.09-22.58,14.62-50.41,14.57-27.83-.05-50.37-6.65-50.36-14.74l.03-17.86,100.77.17Z"/><path class="cls-9_money-68" d="m438.78,294.88l-.03,17.86c-.01,8.09-22.58,14.62-50.41,14.57-27.83-.05-50.37-6.65-50.36-14.74l.03-17.86,100.77.17Z"/><path class="cls-7_money-68" d="m438.78,294.88l-.03,17.86c-.01,8.09-22.58,14.62-50.41,14.57-27.83-.05-50.37-6.65-50.36-14.74l.03-17.86,100.77.17Z"/><ellipse class="cls-9_money-68" cx="387.9" cy="294.2" rx="14.52" ry="49.92" transform="translate(93.04 681.6) rotate(-89.9)"/><path class="cls-7_money-68" d="m438.81,273.35l-.03,17.86c-.01,8.09-22.58,14.62-50.41,14.57-27.83-.05-50.37-6.65-50.36-14.74l.03-17.86,100.77.17Z"/><path class="cls-9_money-68" d="m435.19,252l-.03,17.86c-.01,8.09-22.58,14.62-50.41,14.57-27.83-.05-50.37-6.65-50.36-14.74l.03-17.86,100.77.17Z"/><path class="cls-9_money-68" d="m438.89,230.48l-.03,17.86c-.01,8.09-22.58,14.62-50.41,14.57-27.83-.05-50.37-6.65-50.36-14.74l.03-17.86,100.77.17Z"/><ellipse class="cls-9_money-68" cx="387.93" cy="272.87" rx="14.52" ry="49.92" transform="translate(114.41 660.34) rotate(-89.9)"/><path class="cls-7_money-68" d="m435.19,252l-.03,17.86c-.01,8.09-22.58,14.62-50.41,14.57-27.83-.05-50.37-6.65-50.36-14.74l.03-17.86,100.77.17Z"/><ellipse class="cls-9_money-68" cx="384.34" cy="251.72" rx="14.52" ry="49.92" transform="translate(131.98 635.63) rotate(-89.9)"/><path class="cls-7_money-68" d="m438.89,230.48l-.03,17.86c-.01,8.09-22.58,14.62-50.41,14.57-27.83-.05-50.37-6.65-50.36-14.74l.03-17.86,100.77.17Z"/><ellipse class="cls-9_money-68" cx="388.49" cy="230.39" rx="14.52" ry="50.4" transform="translate(157.44 618.49) rotate(-89.9)"/><polygon class="cls-10_money-68 targetColor" points="383.67 366.56 212.78 366.56 227.25 350 369.2 350 383.67 366.56" style="fill: rgb(104, 225, 253);"/><polygon class="cls-4_money-68" points="383.67 366.56 212.78 366.56 227.25 350 369.2 350 383.67 366.56"/><rect class="cls-10_money-68 targetColor" x="212.78" y="366.56" width="170.89" height="56.84" style="fill: rgb(104, 225, 253);"/><polygon class="cls-5_money-68" points="310.84 350 285.61 350 276.79 366.56 319.66 366.56 310.84 350"/><rect class="cls-7_money-68" x="212.78" y="377.36" width="170.89" height="2.6"/><rect class="cls-7_money-68" x="212.78" y="389.06" width="170.89" height="2.6"/><rect class="cls-7_money-68" x="212.78" y="400.75" width="170.89" height="2.6"/><rect class="cls-7_money-68" x="212.78" y="412.44" width="170.89" height="2.6"/><rect class="cls-5_money-68" x="276.79" y="366.56" width="42.88" height="56.84"/><polygon class="cls-10_money-68 targetColor" points="487.71 394.53 338.79 310.69 359.53 303.35 483.22 372.99 487.71 394.53" style="fill: rgb(104, 225, 253);"/><polygon class="cls-4_money-68" points="487.71 394.53 338.79 310.69 359.53 303.35 483.22 372.99 487.71 394.53"/><rect class="cls-10_money-68 targetColor" x="313.86" y="348.95" width="170.89" height="56.84" transform="translate(236.49 -147.36) rotate(29.38)" style="fill: rgb(104, 225, 253);"/><polygon class="cls-5_money-68" points="432.37 344.36 410.38 331.98 394.57 342.09 431.93 363.13 432.37 344.36"/><rect class="cls-7_money-68" x="321.87" y="361.85" width="170.89" height="2.6" transform="translate(230.54 -153.12) rotate(29.38)"/><rect class="cls-7_money-68" x="316.13" y="372.04" width="170.89" height="2.6" transform="translate(234.8 -148.99) rotate(29.38)"/><rect class="cls-7_money-68" x="310.39" y="382.23" width="170.89" height="2.6" transform="translate(239.06 -144.87) rotate(29.38)"/><rect class="cls-7_money-68" x="304.66" y="392.42" width="170.89" height="2.6" transform="translate(243.33 -140.74) rotate(29.38)"/><rect class="cls-5_money-68" x="377.87" y="348.95" width="42.88" height="56.84" transform="translate(236.49 -147.36) rotate(29.38)"/></g></svg>