<svg id="_0294_online_payment_1" xmlns="http://www.w3.org/2000/svg" viewBox="0 0 500 500" data-imageid="online-payment-1-62" imageName="Online Payment 1" class="illustrations_image" style="width: 166px;"><defs><style>.cls-1_online-payment-1-62,.cls-2_online-payment-1-62,.cls-3_online-payment-1-62,.cls-4_online-payment-1-62,.cls-5_online-payment-1-62{fill:#fff;}.cls-6_online-payment-1-62{fill:#a5a5a5;}.cls-2_online-payment-1-62{opacity:.3;}.cls-3_online-payment-1-62{opacity:.48;}.cls-7_online-payment-1-62{fill:#e6e6e6;}.cls-8_online-payment-1-62{fill:#000001;opacity:.09;}.cls-4_online-payment-1-62{opacity:.44;}.cls-5_online-payment-1-62{opacity:.46;}.cls-9_online-payment-1-62{fill:#24285b;}.cls-10_online-payment-1-62{fill:#ffd200;}.cls-11_online-payment-1-62{fill:#68e1fd;}</style></defs><path id="sd_online-payment-1-62" class="cls-7_online-payment-1-62" d="m109.72,360.57s-.08,0-.12,0c-1.54-.12-3.1-.3-4.64-.53-.83-.12-1.41-.9-1.29-1.73.12-.83.91-1.4,1.73-1.29,1.47.22,2.96.39,4.44.51.84.07,1.47.8,1.4,1.64-.06.8-.73,1.4-1.52,1.4Zm15.21-.59c-.74,0-1.39-.54-1.51-1.29-.13-.83.43-1.61,1.27-1.75,1.46-.23,2.93-.52,4.38-.87.82-.18,1.64.32,1.84,1.14.19.82-.31,1.64-1.13,1.84-1.52.36-3.07.66-4.6.91-.08.01-.16.02-.24.02Zm-34.49-3.73c-.17,0-.35-.03-.52-.09-1.44-.53-2.9-1.11-4.33-1.72-.77-.33-1.13-1.23-.8-2,.33-.78,1.23-1.14,2-.8,1.38.59,2.79,1.15,4.18,1.66.79.29,1.2,1.17.91,1.96-.23.62-.81,1-1.43,1Zm53.3-2.35c-.56,0-1.1-.31-1.37-.85-.37-.76-.06-1.67.69-2.04,1.32-.65,2.65-1.36,3.95-2.11.73-.42,1.66-.17,2.08.56.42.73.17,1.66-.56,2.08-1.36.78-2.74,1.52-4.12,2.2-.22.11-.45.16-.68.16Zm-71.03-6.49c-.28,0-.56-.08-.82-.24-1.3-.82-2.6-1.69-3.87-2.58-.69-.48-.86-1.43-.38-2.13.48-.69,1.43-.86,2.12-.38,1.23.86,2.49,1.69,3.75,2.5.71.45.92,1.39.47,2.11-.29.46-.78.71-1.29.71Zm87.51-4.45c-.43,0-.87-.18-1.17-.54-.54-.65-.46-1.61.18-2.15l.33-.28c1.01-.86,2.03-1.77,3.06-2.71.62-.57,1.58-.53,2.16.09.57.62.53,1.59-.09,2.16-1.06.97-2.1,1.9-3.13,2.78l-.35.3c-.29.24-.64.36-.98.36Zm-103.22-7.64c-.37,0-.74-.13-1.03-.4-1.15-1.05-2.27-2.11-3.36-3.2-.6-.59-.61-1.56-.01-2.16.59-.6,1.56-.61,2.16-.01,1.07,1.05,2.16,2.09,3.28,3.12.62.57.66,1.53.1,2.16-.3.33-.71.5-1.13.5Zm117.37-6.28c-.37,0-.74-.13-1.03-.4-.62-.57-.67-1.53-.1-2.16,1-1.1,2.02-2.23,3.04-3.39.56-.63,1.52-.69,2.15-.14.63.56.69,1.52.14,2.15-1.03,1.17-2.06,2.32-3.08,3.43-.3.33-.71.5-1.13.5Zm-130.86-8.26c-.45,0-.9-.2-1.2-.58-.97-1.23-1.9-2.47-2.8-3.7-.49-.68-.34-1.64.34-2.13.68-.5,1.64-.34,2.13.34.87,1.21,1.78,2.41,2.73,3.61.52.66.41,1.62-.26,2.14-.28.22-.61.33-.94.33Zm143.79-6.82c-.34,0-.68-.11-.96-.34-.65-.53-.75-1.49-.22-2.15.95-1.17,1.91-2.35,2.88-3.55.53-.66,1.49-.76,2.15-.23.66.53.76,1.49.23,2.15-.97,1.21-1.94,2.4-2.89,3.57-.3.37-.74.56-1.18.56Zm-154.59-9.8c-.55,0-1.09-.3-1.36-.83-.73-1.42-1.41-2.83-2.02-4.21-.34-.77,0-1.67.78-2.01.77-.34,1.67,0,2.01.78.59,1.32,1.24,2.69,1.94,4.05.39.75.09,1.67-.66,2.06-.22.11-.46.17-.7.17Zm166.96-5.75c-.33,0-.66-.1-.94-.32-.67-.52-.78-1.48-.27-2.14l2.81-3.62c.52-.67,1.47-.79,2.14-.27.67.52.79,1.47.27,2.14l-2.81,3.62c-.3.39-.75.59-1.2.59Zm-173.25-12.97c-.75,0-1.4-.55-1.51-1.32-.21-1.56-.35-3.14-.41-4.71-.03-.84.63-1.55,1.47-1.58.82-.1,1.55.63,1.58,1.47.05,1.46.18,2.94.38,4.4.11.83-.47,1.61-1.3,1.72-.07,0-.14.01-.21.01Zm185.38-2.76c-.32,0-.65-.1-.93-.31-.67-.51-.8-1.47-.28-2.14l2.79-3.64c.51-.67,1.47-.79,2.14-.28.67.51.8,1.47.28,2.14l-2.79,3.64c-.3.39-.75.6-1.21.6Zm251.49-8.41c-.14,0-.28-.02-.42-.06-.81-.23-1.28-1.08-1.04-1.89.39-1.34.79-2.81,1.21-4.38.21-.81,1.04-1.3,1.86-1.09.82.21,1.3,1.05,1.09,1.86-.42,1.6-.83,3.09-1.23,4.45-.19.67-.8,1.1-1.47,1.1Zm-239.4-7.35c-.33,0-.65-.1-.93-.32-.67-.51-.79-1.47-.28-2.14l2.8-3.63c.51-.67,1.47-.79,2.14-.27.67.52.79,1.48.27,2.14l-2.8,3.62c-.3.39-.75.59-1.21.59Zm-195.85-1.08c-.15,0-.3-.02-.45-.07-.81-.25-1.26-1.1-1.01-1.9.45-1.48.98-2.98,1.58-4.44.32-.78,1.21-1.16,1.99-.84.78.32,1.16,1.21.84,1.99-.56,1.38-1.06,2.79-1.48,4.19-.2.66-.81,1.08-1.46,1.08Zm439.82-10.88c-.09,0-.19,0-.28-.03-.83-.15-1.37-.95-1.22-1.78.27-1.46.54-2.95.79-4.48.14-.83.92-1.41,1.75-1.26.83.14,1.39.92,1.26,1.75-.25,1.55-.52,3.07-.8,4.55-.14.73-.78,1.25-1.5,1.25Zm-231.77-3.71c-.33,0-.66-.11-.94-.33-.66-.52-.78-1.48-.25-2.14.94-1.2,1.89-2.4,2.85-3.6.52-.66,1.48-.77,2.14-.25.66.52.77,1.48.25,2.14-.95,1.2-1.9,2.39-2.84,3.59-.3.38-.75.58-1.2.58Zm-199.01-2.96c-.31,0-.63-.1-.91-.3-.68-.5-.82-1.46-.32-2.13.91-1.24,1.89-2.47,2.9-3.67.54-.64,1.5-.73,2.15-.19.65.54.73,1.51.19,2.15-.97,1.15-1.9,2.34-2.78,3.52-.3.41-.76.62-1.23.62Zm211.44-12.53c-.34,0-.68-.11-.97-.35-.65-.53-.75-1.5-.21-2.15.97-1.18,1.94-2.36,2.92-3.54.54-.65,1.5-.74,2.15-.2s.74,1.5.2,2.15c-.97,1.17-1.94,2.35-2.91,3.53-.3.37-.74.56-1.18.56Zm221.99-.46s-.08,0-.12,0c-.84-.07-1.47-.8-1.4-1.64.12-1.49.22-3,.3-4.53.04-.84.75-1.51,1.6-1.44.84.04,1.49.76,1.44,1.6-.08,1.55-.18,3.09-.31,4.61-.06.8-.73,1.4-1.52,1.4Zm-419.7-1.3c-.44,0-.88-.19-1.19-.56-.53-.66-.43-1.62.23-2.15,2.27-1.84,3.73-2.81,3.79-2.85.7-.46,1.65-.27,2.11.43.46.7.27,1.65-.43,2.11-.01,0-1.42.94-3.56,2.68-.28.23-.62.34-.96.34Zm210.5-13.44c-.35,0-.71-.12-1-.37-.64-.55-.71-1.52-.15-2.15,1-1.16,2.01-2.31,3.02-3.46.56-.63,1.52-.69,2.15-.14.63.56.7,1.52.14,2.16-1.01,1.14-2.01,2.29-3,3.44-.3.35-.73.53-1.15.53Zm209.52-5.1c-.8,0-1.48-.63-1.52-1.44-.08-1.5-.19-3.01-.33-4.51-.08-.84.54-1.58,1.38-1.66.85-.08,1.58.54,1.66,1.38.14,1.54.25,3.09.34,4.62.05.84-.6,1.56-1.44,1.61-.03,0-.06,0-.08,0Zm-196.26-9.69c-.37,0-.75-.14-1.04-.41-.62-.58-.65-1.54-.08-2.16,1.05-1.12,2.09-2.24,3.15-3.35.58-.61,1.55-.64,2.16-.06.61.58.64,1.55.06,2.16-1.05,1.1-2.09,2.21-3.13,3.33-.3.32-.71.49-1.12.49Zm193.49-9.93c-.69,0-1.31-.47-1.48-1.17-.36-1.48-.75-2.94-1.16-4.35-.24-.81.22-1.66,1.03-1.9.81-.24,1.66.22,1.89,1.03.43,1.46.83,2.97,1.2,4.5.2.82-.31,1.64-1.13,1.84-.12.03-.24.04-.36.04Zm-179.64-4.29c-.4,0-.79-.15-1.09-.46-.59-.6-.58-1.57.02-2.16,1.1-1.07,2.2-2.14,3.31-3.2.61-.58,1.58-.56,2.16.05.58.61.56,1.58-.05,2.16-1.1,1.05-2.19,2.1-3.28,3.17-.3.29-.68.44-1.07.44Zm14.6-13.45c-.43,0-.85-.18-1.16-.53-.55-.64-.48-1.6.16-2.15,1.17-1.01,2.34-2,3.51-2.98.65-.54,1.61-.46,2.15.19s.46,1.61-.19,2.15c-1.16.97-2.32,1.95-3.47,2.95-.29.25-.64.37-1,.37Zm158.2-.82c-.55,0-1.08-.3-1.35-.82-.69-1.32-1.43-2.64-2.2-3.9-.44-.72-.21-1.66.51-2.1.72-.44,1.66-.21,2.1.51.8,1.32,1.58,2.69,2.3,4.07.39.75.1,1.67-.65,2.06-.23.12-.47.17-.71.17Zm-142.7-11.57c-.47,0-.93-.22-1.23-.62-.5-.68-.35-1.63.33-2.13,1.25-.91,2.5-1.81,3.75-2.68.69-.48,1.64-.32,2.13.38.48.69.32,1.64-.38,2.13-1.24.86-2.47,1.75-3.7,2.65-.27.2-.59.3-.9.3Zm131.09-4.42c-.39,0-.79-.15-1.09-.45-1.04-1.06-2.13-2.09-3.25-3.07-.63-.56-.7-1.52-.14-2.15s1.52-.7,2.15-.14c1.17,1.03,2.31,2.11,3.4,3.21.59.6.58,1.57-.01,2.16-.3.29-.68.44-1.07.44Zm-114.52-6.47c-.53,0-1.04-.27-1.32-.76-.42-.73-.17-1.66.56-2.09,1.34-.78,2.68-1.53,4.03-2.26.74-.4,1.67-.13,2.07.61.4.74.13,1.67-.62,2.07-1.32.72-2.64,1.46-3.95,2.22-.24.14-.5.21-.76.21Zm98.71-5.38c-.25,0-.5-.06-.73-.19-1.29-.7-2.63-1.39-3.99-2.04-.76-.36-1.09-1.27-.72-2.03.36-.76,1.27-1.08,2.03-.72,1.42.67,2.82,1.39,4.15,2.12.74.41,1.01,1.33.6,2.07-.28.51-.8.79-1.34.79Zm-80.95-3.38c-.6,0-1.17-.36-1.42-.95-.32-.78.06-1.67.84-1.99,1.44-.58,2.88-1.13,4.32-1.66.79-.28,1.67.12,1.95.92.29.79-.12,1.67-.92,1.96-1.41.51-2.82,1.05-4.22,1.62-.19.08-.38.11-.57.11Zm62.63-4.12c-.14,0-.29-.02-.43-.06-1.44-.42-2.9-.81-4.35-1.16-.82-.2-1.32-1.02-1.13-1.84.2-.82,1.03-1.32,1.84-1.13,1.5.36,3.01.76,4.5,1.2.81.24,1.27,1.09,1.03,1.89-.2.66-.8,1.1-1.46,1.1Zm-43.73-1.68c-.71,0-1.34-.49-1.49-1.22-.17-.83.36-1.63,1.18-1.8,1.52-.31,3.06-.6,4.57-.83.83-.14,1.61.44,1.75,1.27.13.83-.44,1.61-1.27,1.75-1.46.23-2.95.5-4.42.81-.1.02-.21.03-.31.03Zm24.25-1.78s-.07,0-.1,0c-1.48-.1-3-.15-4.49-.17-.84,0-1.52-.7-1.51-1.54,0-.84.67-1.55,1.54-1.51,1.55.02,3.12.08,4.66.17.84.05,1.48.78,1.42,1.62-.05.81-.72,1.43-1.52,1.43Z"/><g id="phone_online-payment-1-62"><polygon class="cls-6_online-payment-1-62" points="369.6 405.9 159.33 405.9 200.86 67.65 388.38 67.65 407.96 93.5 369.6 405.9"/><polygon class="cls-7_online-payment-1-62" points="346.85 405.9 136.58 405.9 178.11 67.65 388.38 67.65 346.85 405.9"/><polygon class="cls-1_online-payment-1-62" points="336.51 341.72 160.81 341.72 190.76 97.81 366.45 97.81 336.51 341.72"/><polygon class="cls-7_online-payment-1-62" points="277.24 235.22 328.02 235.84 327.02 243.69 277.24 242.82 277.24 235.22"/><polygon class="cls-6_online-payment-1-62" points="136.58 405.9 161.86 429.24 366.45 432.35 369.6 405.9 136.58 405.9"/><path class="cls-9_online-payment-1-62" d="m298.85,163.81s8.78.62,13.26,17.1c4.48,16.49,2.95,62.52,2.95,62.52l-37.82-.61s-18.84-68.54,21.61-79.01Z"/><path class="cls-11_online-payment-1-62 targetColor" d="m298.85,163.81s-19.9,7.14-12.96,63.2c5.08,41.07-12.1,95.44-37.5,96.1-25.4.67-72.25-1.58-72.25-1.58,0,0,24.4-63.14,19.35-116.16-.71-7.44.04-14.99,2.6-22.01,2.95-8.07,8.46-16.48,18.71-17.84,20.5-2.72,82.04-1.71,82.04-1.71Z" style="fill: rgb(104, 225, 253);"/><path class="cls-11_online-payment-1-62 targetColor" d="m162.11,325.64l89.76-1.85s-13.7-13.58-14.55-48.14l-123.49,1.78s2.55,12.32,9.69,25.68c7.58,14.17,22.51,22.86,38.58,22.53Z" style="fill: rgb(104, 225, 253);"/><path class="cls-4_online-payment-1-62" d="m162.11,325.64l89.76-1.85s-13.7-13.58-14.55-48.14l-123.49,1.78s2.55,12.32,9.69,25.68c7.58,14.17,22.51,22.86,38.58,22.53Z"/><polygon class="cls-9_online-payment-1-62" points="227.71 115.41 224.59 135.97 315.31 135.97 318.05 115.41 227.71 115.41"/><path class="cls-3_online-payment-1-62" d="m252.71,358.15c-9.8-8.57-25.29-6.87-32.2,4.16-1.63,2.61-2.72,5.61-2.72,9,0,13.55,9.35,22.43,28.04,18.69,14.26-2.85,19.69-20.66,6.89-31.85Z"/><path class="cls-1_online-payment-1-62" d="m212.45,186.57c-.95,0-1.75-.73-1.82-1.7-.07-1.01.68-1.89,1.69-1.96.38-.03,38.66-2.81,59.16-.97,1.01.09,1.75.98,1.66,1.99-.09,1.01-.98,1.76-1.99,1.66-20.21-1.8-58.19.95-58.57.98-.05,0-.09,0-.14,0Z"/><path class="cls-1_online-payment-1-62" d="m209.42,211.34c-.95,0-1.75-.73-1.82-1.7-.07-1.01.68-1.89,1.69-1.96.38-.03,38.66-2.81,59.16-.97,1.01.09,1.75.98,1.66,1.99-.09,1.01-.97,1.76-1.99,1.66-20.21-1.81-58.19.95-58.57.98-.05,0-.09,0-.14,0Z"/><path class="cls-1_online-payment-1-62" d="m209.06,237.07c-.95,0-1.75-.73-1.82-1.7-.07-1.01.68-1.89,1.69-1.96.38-.03,38.66-2.81,59.16-.97,1.01.09,1.75.98,1.66,1.99-.09,1.01-.97,1.75-1.99,1.66-20.21-1.81-58.19.95-58.57.98-.05,0-.09,0-.14,0Z"/><path class="cls-1_online-payment-1-62" d="m206.64,262.8c-.95,0-1.75-.73-1.82-1.7-.07-1.01.68-1.89,1.69-1.96.38-.03,38.66-2.81,59.16-.97,1.01.09,1.75.98,1.66,1.99-.09,1.01-.97,1.76-1.99,1.66-20.21-1.81-58.19.95-58.57.98-.05,0-.09,0-.14,0Z"/></g><g id="card_online-payment-1-62"><rect class="cls-10_online-payment-1-62" x="20.7" y="114.08" width="127.91" height="82.63" transform="translate(-91.12 175.78) rotate(-68.04)"/><rect class="cls-1_online-payment-1-62" x="45.35" y="118.7" width="57.26" height="13.65" transform="translate(-70.11 147.2) rotate(-68.04)"/><rect class="cls-5_online-payment-1-62" x="74.02" y="190.01" width="30.57" height="13.65" rx="3.94" ry="3.94" transform="translate(-126.65 206.04) rotate(-68.04)"/><rect class="cls-5_online-payment-1-62" x="76.85" y="137.59" width="67.17" height="13.65" rx="3.94" ry="3.94" transform="translate(-64.8 192.83) rotate(-68.04)"/><circle class="cls-2_online-payment-1-62" cx="50.3" cy="186.06" r="9.03"/><circle class="cls-2_online-payment-1-62" cx="54.35" cy="174.42" r="9.03"/></g><g id="coin_online-payment-1-62"><circle class="cls-10_online-payment-1-62" cx="443.8" cy="345.62" r="42.09"/><circle class="cls-8_online-payment-1-62" cx="443.8" cy="345.62" r="42.09"/><circle class="cls-10_online-payment-1-62" cx="445.71" cy="334.22" r="42.09"/><path class="cls-1_online-payment-1-62" d="m451.75,308.9c1.41.24,1.75.8,1.52,2.2l-.5,3c5.49,1.74,8.26,5.09,9.82,10.38.49,1.59.05,2.33-1.72,2.79l-3.22.84c-1.52.44-2.14.02-2.69-1.58-1.12-3.46-2.88-5.32-7.04-6.02-5.2-.87-7.84.26-8.42,3.74-.38,2.26,1.46,4.02,3.53,4.8,1,.42,2.42.91,4.29,1.41,3.37.88,5.04,1.41,7.86,2.95,1.44.81,2.5,1.61,3.28,2.56,1.45,1.88,2.46,5.19,1.81,9.1-1.12,6.66-6.34,10.44-14.42,10.28l-.53,3.18c-.24,1.41-.75,1.82-2.15,1.59l-3.36-.56c-1.41-.24-1.81-.81-1.58-2.21l.52-3.12c-5.98-1.82-9.55-5.62-10.65-11.46-.26-1.43.38-2.26,1.88-2.58l3.18-.6c1.62-.29,2.23.19,2.65,1.83.77,3.65,3.24,5.82,7.39,6.52,5.62.94,8.73-.36,9.34-3.97.32-1.9-.34-3.2-1.99-4.23-1.66-.97-3.15-1.47-5.86-2.18-3.31-.87-5.15-1.55-7.9-3.15-1.37-.8-2.42-1.66-3.21-2.61-1.56-1.96-2.53-5.14-1.91-8.87,1.11-6.6,6-10.31,14-10.03l.5-3c.24-1.41.81-1.81,2.21-1.58l3.36.56Z"/></g></svg>