<?xml version="1.0" encoding="UTF-8" standalone="no"?>
<!-- Created with Inkscape (http://www.inkscape.org/) -->

<svg
   width="230.97565"
   height="72.564194"
   viewBox="0 0 230.97565 72.564194"
   version="1.1"
   id="svg1"
   inkscape:version="1.3.2 (091e20e, 2023-11-25, custom)"
   sodipodi:docname="Saverly.svg"
   xmlns:inkscape="http://www.inkscape.org/namespaces/inkscape"
   xmlns:sodipodi="http://sodipodi.sourceforge.net/DTD/sodipodi-0.dtd"
   xmlns="http://www.w3.org/2000/svg"
   xmlns:svg="http://www.w3.org/2000/svg">
  <sodipodi:namedview
     id="namedview1"
     pagecolor="#ffffff"
     bordercolor="#999999"
     borderopacity="1"
     inkscape:showpageshadow="2"
     inkscape:pageopacity="0"
     inkscape:pagecheckerboard="0"
     inkscape:deskcolor="#d1d1d1"
     inkscape:document-units="px"
     inkscape:zoom="2.828427"
     inkscape:cx="158.39193"
     inkscape:cy="168.11464"
     inkscape:window-width="1920"
     inkscape:window-height="1166"
     inkscape:window-x="-11"
     inkscape:window-y="1285"
     inkscape:window-maximized="1"
     inkscape:current-layer="text1" />
  <defs
     id="defs1" />
  <g
     inkscape:label="Layer 1"
     inkscape:groupmode="layer"
     id="layer1"
     transform="translate(-36.780003,-153.25858)">
    <g
       id="text1"
       style="font-size:71.4242px;font-family:'MV Boli';-inkscape-font-specification:'MV Boli, Normal';text-align:center;text-anchor:middle;fill:#1a1a1a;stroke-width:5.96136;paint-order:markers fill stroke"
       aria-label="Saverly">
      <path
         d="m 38.417122,200.02614 q 1.185753,0.4185 2.406381,0.97651 1.255504,0.558 2.580758,1.08112 1.325254,0.48826 2.755133,0.83701 1.464754,0.34875 3.103883,0.34875 1.918131,0 3.871136,-0.45338 1.953006,-0.45338 3.801386,-1.32525 1.883255,-0.90676 3.592135,-2.16226 1.70888,-1.29038 3.138759,-2.96438 1.569379,-1.77863 2.615632,-3.20851 1.046253,-1.46476 1.674005,-2.58076 0.662627,-1.15088 0.941628,-1.953 0.279001,-0.83701 0.279001,-1.42988 0,-0.87188 -0.592877,-1.49963 -0.592877,-0.66263 -1.604255,-1.08113 -0.976502,-0.4185 -2.232006,-0.59288 -1.255503,-0.20925 -2.615632,-0.20925 -0.802128,0 -1.883256,0.0697 -1.081128,0.0349 -2.197131,0.10463 -1.116003,0.0349 -2.162256,0.0697 -1.046253,0.0349 -1.813505,0.0349 -1.150878,0 -2.406382,-0.24412 -1.220628,-0.279 -2.406382,-0.87188 -1.185753,-0.59288 -2.197131,-1.60425 -1.011378,-1.01138 -1.674005,-2.51101 -0.20925,-0.48825 -0.383626,-1.15088 -0.174375,-0.66263 -0.174375,-1.42988 0,-0.837 0.104625,-1.56938 0.1395,-0.76725 0.313876,-1.46475 0.488251,-1.74376 1.604255,-3.52239 1.150878,-1.8135 2.720257,-3.52238 1.604255,-1.70888 3.452635,-3.31314 1.883255,-1.60425 3.836261,-2.99926 1.98788,-1.42987 3.871136,-2.54588 1.91813,-1.15088 3.55726,-1.953 2.301756,-1.11601 4.673263,-1.60426 2.406382,-0.52312 4.743013,-0.52312 1.395004,0 2.650508,0.38362 1.255503,0.34875 2.197131,1.04625 0.976503,0.69751 1.534504,1.74376 0.558002,1.01138 0.558002,2.33663 0,0.76725 -0.174375,1.29038 -0.174376,0.52313 -0.453377,0.87188 -0.279,0.31387 -0.627751,0.45337 -0.313876,0.1395 -0.662627,0.1395 -0.941628,0 -1.743755,-0.20925 -0.767252,-0.20925 -1.49963,-0.45337 -0.732377,-0.279 -1.464754,-0.48825 -0.732377,-0.24413 -1.604254,-0.24413 -2.580757,0 -5.26614,1.04625 -2.650508,1.01138 -5.19639,2.61564 -2.511007,1.56937 -4.777888,3.52238 -2.232007,1.95301 -4.010637,3.80139 -0.941627,0.9765 -1.395004,1.953 -0.418501,0.9765 -0.418501,1.84838 0,1.29038 1.116003,2.02276 1.116004,0.73237 2.720258,0.73237 0.941628,0 2.127381,-0.0349 1.185753,-0.0349 2.406382,-0.0697 1.255503,-0.0697 2.406382,-0.10463 1.185753,-0.0697 2.092506,-0.0697 2.162256,0 4.150136,0.62776 1.987881,0.59287 3.522385,1.77863 1.534505,1.18575 2.441257,2.96438 0.941628,1.74375 0.941628,4.01064 0,1.395 -0.418501,2.82488 -0.418501,1.42988 -1.150879,2.89463 -0.732377,1.42988 -1.674004,2.85976 -0.941628,1.395 -1.987881,2.75513 -1.883255,2.44126 -4.219887,4.60352 -2.301756,2.16225 -4.917389,3.76651 -2.615632,1.60425 -5.54514,2.54588 -2.894634,0.94163 -5.963642,0.94163 -1.325254,0 -2.720258,-0.24413 -1.395004,-0.24413 -2.755133,-0.73238 -1.360129,-0.45337 -2.580757,-1.15088 -1.185753,-0.73237 -2.092506,-1.63912 -0.906753,-0.90676 -1.464754,-1.98789 -0.523127,-1.116 -0.523127,-2.40638 0,-0.62775 0.174376,-1.18575 0.20925,-0.59288 0.976503,-0.59288 z m 17.71655,-43.00099 z"
         id="path35"
         style="fill:#6AD4DD" />
      <path
         d="m 98.751041,206.58266 c 0,-0.67425 0.08137,-1.47638 0.244126,-2.40638 0.162751,-0.95325 0.244126,-2.12738 0.244126,-3.52239 -0.767252,0.55801 -1.615879,1.22064 -2.545882,1.98789 -0.930003,0.76725 -1.894881,1.49962 -2.894634,2.19713 -0.999753,0.6975 -1.999505,1.29038 -2.999258,1.77863 -0.976503,0.465 -1.89488,0.6975 -2.755133,0.6975 -0.697502,0 -1.360129,-0.10463 -1.98788,-0.31388 -0.627752,-0.20925 -1.162504,-0.48825 -1.604255,-0.837 -1.232253,-0.9765 -2.127381,-1.953 -2.685383,-2.92951 -0.534751,-0.9765 -0.802127,-2.11575 -0.802127,-3.41776 0,-0.58125 0.0465,-1.18575 0.139501,-1.8135 0.11625,-0.62775 0.279,-1.34851 0.488251,-2.16226 0.883503,-3.67351 2.394757,-7.06802 4.533763,-10.18353 2.162256,-3.13876 4.836013,-5.81252 8.021272,-8.02127 1.232254,-0.86025 2.464508,-1.40663 3.696761,-1.63913 1.232253,-0.25575 4.874871,-0.63496 6.083761,-0.61801 1.48666,0.0208 2.19021,-0.0424 3.26052,0.0626 0.77549,0.076 1.56,0.26488 2.025,0.45088 0.465,0.18601 0.837,0.44176 1.116,0.76726 0.27901,0.30225 0.47663,0.66262 0.59288,1.08112 0.1395,0.39525 0.20925,0.81376 0.20925,1.25551 0,0.6045 -0.093,1.18575 -0.279,1.74375 -0.1748,0.50254 -0.34959,1.01535 -0.52439,1.53842 -0.0112,0.0335 -0.0224,0.0671 -0.0336,0.10071 l -4.60351,18.37918 c -0.093,0.99975 -0.17438,1.91813 -0.24413,2.75513 -0.0697,0.83701 -0.20925,1.61588 -0.4185,2.33663 -0.0697,0.20925 -0.16275,0.47663 -0.279,0.80213 -0.093,0.30225 -0.25575,0.6045 -0.48825,0.90675 -0.2325,0.27901 -0.52313,0.52313 -0.87188,0.73238 -0.34875,0.20925 -0.80213,0.31388 -1.36013,0.31388 -0.72075,0 -1.302,-0.0465 -1.74375,-0.1395 -0.418504,-0.093 -0.744006,-0.22088 -0.976507,-0.38363 -0.232501,-0.186 -0.383626,-0.39525 -0.453376,-0.62775 -0.06975,-0.25575 -0.104626,-0.54638 -0.104626,-0.87188 z M 87.172509,196.05038 c -0.093,0.3255 -0.197626,0.7905 -0.313876,1.39501 -0.093,0.6045 -0.139501,1.209 -0.139501,1.8135 0,0.62775 0.093,1.19738 0.279001,1.70888 0.186001,0.48825 0.592877,0.73238 1.220629,0.73238 0.976503,0 1.883255,-0.20925 2.720257,-0.62775 0.860253,-0.44175 1.66238,-0.96488 2.406382,-1.56938 0.999753,-0.81375 2.011131,-1.72051 3.034134,-2.72026 1.046253,-1.02301 2.022755,-2.09251 2.929508,-3.20851 0.930007,-1.11601 1.743757,-2.25526 2.441257,-3.41776 0.72075,-1.18575 1.24388,-2.35988 1.56938,-3.52238 0.186,-0.67425 0.33713,-1.45313 0.45338,-2.33664 0.1395,-0.8835 0.20925,-1.674 0.20925,-2.3715 0,-0.30225 -0.0697,-0.59288 -0.20925,-0.87188 -0.1395,-0.30225 -0.40688,-0.45338 -0.80213,-0.45338 -1.13925,0 -2.29013,0.22088 -3.452636,0.66263 -1.139253,0.44175 -2.243632,1.03463 -3.313135,1.77863 -1.069503,0.744 -2.092505,1.6275 -3.069008,2.65051 -0.953253,0.99975 -1.82513,2.08088 -2.615633,3.24338 -0.790502,1.13925 -1.476379,2.32501 -2.057631,3.55726 -0.558001,1.20901 -0.988127,2.39476 -1.290378,3.55726 z m 40.455111,13.42691 c -0.11625,0.0233 -0.22088,0.0349 -0.31388,0.0349 -0.0697,0.0233 -0.15112,0.0349 -0.24412,0.0349 -0.48825,0 -0.91838,-0.10462 -1.29038,-0.31387 -0.372,-0.20925 -0.6975,-0.47663 -0.9765,-0.80213 -0.25575,-0.30225 -0.45338,-0.62775 -0.59288,-0.9765 -0.1395,-0.372 -0.20925,-0.72075 -0.20925,-1.04625 -0.11625,-0.48825 -0.279,-1.18576 -0.48825,-2.09251 -0.20925,-0.90675 -0.45338,-1.92976 -0.73238,-3.06901 -0.25575,-1.13925 -0.53475,-2.35988 -0.837,-3.66188 -0.279,-1.32525 -0.558,-2.65051 -0.837,-3.97577 -0.49784,-2.36476 0,0 -1.6253,-6.97022 -0.11625,-0.744 -0.24413,-1.4415 -0.38363,-2.0925 -0.1395,-0.651 -0.26737,-1.26713 -0.38362,-1.84838 -0.11625,-0.6045 -0.22088,-1.18575 -0.31388,-1.74376 -0.0697,-0.58125 -0.17453,-1.16672 -0.10463,-1.74375 0.12326,-1.0175 0.64693,-1.75338 1.05213,-2.61575 0.0704,-0.11726 0.14367,-0.2286 0.21993,-0.33403 0.22619,-0.31267 0.47838,-0.57332 0.75657,-0.78197 0.39525,-0.27901 0.82538,-0.41851 1.29038,-0.41851 0.93001,0 1.66238,0.2325 2.19713,0.69751 0.55801,0.44175 0.89974,1.00206 1.20199,1.76931 0.22491,0.7661 0.2615,0.81387 0.37775,1.81362 0.42296,4.0217 1.17705,7.95391 1.81832,11.89693 0.25575,1.55775 0.5115,3.06901 0.76725,4.53376 0.279,1.44151 0.52313,2.72026 0.73238,3.83626 0.6975,-0.72075 1.91813,-2.32501 3.66188,-4.81276 0.86025,-1.20901 1.65076,-2.32501 2.37151,-3.34801 0.744,-1.02301 1.17633,-1.64596 1.82734,-2.57596 1.58519,-2.32116 2.63744,-4.06506 3.52238,-5.71952 0.558,-0.99975 1.24743,-2.47747 1.75894,-3.59347 0.7376,-1.60811 1.8212,-3.03877 3.09457,-4.25354 0.32551,-0.25575 0.68588,-0.465 1.08113,-0.62775 0.4185,-0.16275 0.8835,-0.24413 1.39501,-0.24413 1.0695,0 1.79025,0.26738 2.16225,0.80213 0.39525,0.53475 0.59288,1.20901 0.59288,2.02276 0,1.09275 -0.44763,1.36024 -0.84288,2.40649 -0.372,1.02301 -0.9765,2.12739 -1.8135,3.31314 l -16.09125,22.73376 c -0.32551,0.69751 -0.66263,1.27876 -1.01138,1.74376 -0.34875,0.465 -0.6975,0.837 -1.04625,1.116 -0.32551,0.279 -0.63938,0.48825 -0.94163,0.62775 -0.30225,0.1395 -0.56963,0.2325 -0.80213,0.279 z m 25.58184,-18.86017 c 0.25575,-0.51151 2.39333,-4.54369 2.92808,-5.40394 0.53475,-0.88351 1.47863,-1.89926 2.26913,-2.92226 0.7905,-1.02301 1.68563,-2.04601 2.68538,-3.06901 1.02301,-1.04625 2.13901,-1.98788 3.34801,-2.82488 1.23225,-0.86025 2.54588,-1.55776 3.94089,-2.09251 1.41825,-0.53475 2.91788,-0.80213 4.49889,-0.80213 1.3485,0 2.52263,0.16275 3.52238,0.48825 0.99975,0.32551 1.82513,0.77888 2.47613,1.36013 0.651,0.58125 1.13925,1.27876 1.46476,2.09251 0.3255,0.7905 0.48825,1.65075 0.48825,2.58076 0,0.7905 -0.10463,1.54613 -0.31388,2.26688 -0.3255,1.302 -0.93,2.44125 -1.8135,3.41776 -0.88351,0.9765 -1.92976,1.83675 -3.13876,2.58075 -1.18575,0.72075 -2.48776,1.32526 -3.90601,1.81351 -1.39501,0.48825 -2.80164,0.89513 -4.21989,1.22063 -1.39501,0.3255 -2.74351,0.58125 -4.04551,0.76725 -2.74926,0.46538 -4.87986,2.4847 -5.27698,4.44357 -0.202,0.76837 -0.28737,2.2595 -0.28737,2.864 0,1.34851 0.53475,2.39476 1.60426,3.13876 1.0695,0.744 2.54588,1.116 4.42913,1.116 1.09275,0 2.13901,-0.11625 3.13876,-0.34875 0.99975,-0.25575 1.94138,-0.56962 2.82489,-0.94163 0.90675,-0.39525 1.75537,-0.81375 2.54588,-1.2555 0.7905,-0.465 1.51125,-0.91838 2.16225,-1.36013 0.83701,-0.558 1.62751,-1.023 2.37151,-1.395 0.76725,-0.39525 1.44151,-0.59288 2.02276,-0.59288 0.58125,0 0.95325,0.15113 1.116,0.45338 0.16275,0.279 0.24413,0.58125 0.24413,0.90675 0,0.186 -0.0116,0.372 -0.0349,0.558 0,0.16275 -0.0116,0.30225 -0.0349,0.4185 -0.11625,0.60451 -0.34875,1.20901 -0.6975,1.81351 -0.34875,0.6045 -0.7905,1.12763 -1.32525,1.56938 -2.41801,1.90651 -4.90576,3.26663 -7.46327,4.08038 -2.53426,0.81375 -5.24289,1.22063 -8.1259,1.22063 -0.558,0 -1.22063,-0.0349 -1.98788,-0.10462 -0.744,-0.0697 -1.52288,-0.20925 -2.33663,-0.4185 -0.81375,-0.20925 -1.61588,-0.51151 -2.40638,-0.90676 -0.79051,-0.39525 -1.49964,-0.91837 -2.12739,-1.56938 -0.6045,-0.651 -1.10437,-1.45313 -1.49962,-2.40638 -0.37201,-0.95325 -0.87051,-2.10413 -0.87051,-3.45263 -0.19565,-3.52267 0.28091,-5.61117 1.83056,-9.3044 z m 20.92588,-9.12833 c 0,0 0.0697,-0.22088 0.0697,-0.31388 v -0.31387 c 0,-0.62775 -0.2325,-1.09276 -0.6975,-1.39501 -0.46501,-0.3255 -1.02301,-0.48825 -1.67401,-0.48825 -1.023,0 -2.03438,0.26738 -3.03413,0.80213 -0.97651,0.53475 -1.90651,1.20901 -2.79001,2.02276 -0.86025,0.7905 -1.62751,1.65075 -2.30176,2.58075 -0.67425,0.90675 -1.19737,1.73213 -1.56938,2.47614 1.67401,-0.13951 3.20851,-0.36038 4.60352,-0.66263 1.395,-0.3255 2.604,-0.72075 3.62701,-1.18575 1.04625,-0.48825 1.88326,-1.02301 2.51101,-1.60426 0.60681,-0.52345 0.92607,-1.21384 1.25555,-1.91813 z m 13.23332,23.00137 c 0.30225,-1.62751 0.65101,-3.41776 1.04626,-5.37077 0.39525,-1.95301 0.80212,-3.92926 1.22063,-5.92877 0.4185,-1.9995 0.82537,-3.96413 1.22062,-5.89389 0.39525,-1.92975 0.73238,-3.69676 1.01138,-5.30101 -0.0233,-0.2325 -0.0349,-0.43013 -0.0349,-0.59288 v -0.59288 c 0,-0.72075 0.0465,-1.4415 0.1395,-2.16225 0.093,-0.72075 0.22087,-1.38338 0.38362,-1.98788 0.25575,-0.88351 0.53476,-1.47638 0.83701,-1.77863 0.3255,-0.3255 0.837,-0.48825 1.5345,-0.48825 0.67425,0 1.209,0.1395 1.60425,0.4185 0.41851,0.25575 0.74401,0.6045 0.97651,1.04625 0.2325,0.44175 0.38362,0.95325 0.45337,1.5345 0.0697,0.55801 0.10463,1.13926 0.10463,1.74376 0,0.3255 -0.0116,0.68588 -0.0349,1.08113 -0.0233,0.39525 -0.0349,0.70912 -0.0349,0.94162 0.651,-0.67425 1.33688,-1.36012 2.05763,-2.05763 0.744,-0.72075 1.52288,-1.36012 2.33663,-1.91813 0.83701,-0.58125 1.70888,-1.05787 2.61563,-1.42988 0.93001,-0.372 1.89489,-0.558 2.89464,-0.558 0.39525,0 0.77887,0.0349 1.15088,0.10463 0.39525,0.0697 0.7905,0.16275 1.18575,0.279 0.465,0.11625 0.94163,0.279 1.42988,0.48825 0.5115,0.186 0.99975,0.45338 1.46475,0.80213 0.76725,0.58125 1.40663,1.31362 1.91813,2.19713 0.53475,0.86025 0.80213,1.74376 0.80213,2.65051 0,0.34875 -0.0697,0.73237 -0.20925,1.15087 -0.1395,0.39525 -0.33713,0.76726 -0.59288,1.11601 -0.2325,0.3255 -0.5115,0.6045 -0.837,0.837 -0.3255,0.20925 -0.68588,0.31388 -1.08113,0.31388 -0.39525,0 -0.8835,-0.093 -1.46475,-0.27901 -0.558,-0.20925 -1.023,-0.47662 -1.39501,-0.80212 -0.16275,-0.1395 -0.33712,-0.33713 -0.52312,-0.59288 l -0.48825,-0.76725 c -0.1395,-0.25575 -0.279,-0.48825 -0.41851,-0.6975 -0.11625,-0.2325 -0.20925,-0.38363 -0.279,-0.45338 -0.11625,-0.0233 -0.24412,-0.0349 -0.38362,-0.0349 -0.1395,-0.0233 -0.26738,-0.0349 -0.38363,-0.0349 -1.18575,0 -2.31338,0.30225 -3.38288,0.90675 -1.06951,0.60451 -2.06926,1.34851 -2.99926,2.23201 -0.93001,0.86025 -1.79026,1.79026 -2.58076,2.79001 -0.76725,0.9765 -1.4415,1.86 -2.02275,2.6505 -0.46501,1.88326 -0.98813,3.89439 -1.56938,6.0334 -0.55801,2.11575 -1.11601,4.33613 -1.67401,6.66114 v 0.87188 c 0,0.6975 -0.0232,1.40663 -0.0697,2.12738 -0.0465,0.72075 -0.18597,1.36013 -0.4185,1.91813 -0.25575,0.34875 -0.62775,0.63938 -1.116,0.87188 -0.465,0.25575 -1.01138,0.38362 -1.63913,0.38362 -0.97651,0 -1.70888,-0.31387 -2.19713,-0.94162 -0.48825,-0.65101 -0.73238,-1.40664 -0.73238,-2.26689 0,-0.39525 0.0581,-0.80212 0.17437,-1.22062 z m 40.07149,-41.64087 c 0.0697,-0.79051 0.16275,-1.65076 0.279,-2.58076 0.11625,-0.93 0.30226,-1.79025 0.55801,-2.58076 0.25575,-0.7905 0.59287,-1.4415 1.01137,-1.953 0.44175,-0.53475 0.99976,-0.80213 1.67401,-0.80213 0.372,0 0.77888,0.0697 1.22063,0.20925 0.465,0.1395 0.89513,0.33713 1.29038,0.59288 0.4185,0.2325 0.76725,0.52313 1.04625,0.87188 0.279,0.34875 0.4185,0.73237 0.4185,1.15087 0,0.186 -0.0349,0.40688 -0.10463,0.66263 -0.0697,0.2325 -0.12787,0.465 -0.17437,0.6975 l -8.71878,34.94485 c -0.34875,1.39501 -0.63937,2.73189 -0.87187,4.01064 -0.2325,1.2555 -0.40688,2.29013 -0.52313,3.10388 v 0.837 c 0,0.69751 -0.0465,1.46476 -0.1395,2.30176 -0.093,0.81375 -0.26738,1.58101 -0.52313,2.30176 -0.25575,0.6975 -0.61612,1.27875 -1.08112,1.74375 -0.44175,0.48825 -1.02301,0.73238 -1.74376,0.73238 -0.62775,0 -1.17413,-0.1395 -1.63913,-0.4185 -0.465,-0.25575 -0.84863,-0.59288 -1.15088,-1.01138 -0.30225,-0.4185 -0.52312,-0.86025 -0.66262,-1.32525 -0.1395,-0.48825 -0.20925,-0.94163 -0.20925,-1.36013 0,-0.372 0.0349,-0.82538 0.10462,-1.36013 0.0697,-0.558 0.15113,-1.12763 0.24413,-1.70888 0.11625,-0.6045 0.2325,-1.19738 0.34875,-1.77863 0.11625,-0.6045 0.2325,-1.12763 0.34875,-1.56938 z"
         id="path36"
         sodipodi:nodetypes="sccsscssccscccccsssccscsccscccsscccssccscscccccccscscsccccccsscccsccscsccscscscccccccccccccscscccscsccccscccssscscscccccssscccccscsccsccscssccccssscscccccccscssscssscsscscssccccscccccscccscccccccsscccccssccscscccsscsccsscccccscccscscsccccc"
         style="fill:#6AD4DD" />
      <path
         d="m 39.641563,218.45709 c -2.708926,-0.23481 -3.479734,-1.71169 -2.37532,-2.08231 0.543324,-0.13583 180.837207,1.66042 191.488367,1.59909 10.46177,-0.0602 17.58738,-4.2883 22.36573,-10.72862 1.98837,-2.26041 2.81745,-4.42255 4.06357,-7.72672 0.65296,-3.22299 -0.74142,-1.53923 -2.11057,-0.15508 -0.651,0.62775 -1.32525,1.24387 -2.02275,1.84838 -0.6975,0.58125 -1.395,1.116 -2.09251,1.60425 -0.6975,0.465 -1.38338,0.837 -2.05763,1.116 -0.651,0.27901 -1.26713,0.41851 -1.84838,0.41851 -1.55775,0 -2.88301,-0.34875 -3.97576,-1.04626 -1.09275,-0.72075 -2.10413,-1.89488 -3.03413,-3.52238 -0.25575,-0.465 -0.45338,-1.0695 -0.59288,-1.81351 -0.1395,-0.744 -0.20925,-1.49963 -0.20925,-2.26688 0,-1.2555 0.0581,-2.47613 0.17438,-3.66188 0.11625,-1.18575 0.29062,-2.41801 0.52312,-3.69677 0.2325,-1.27875 0.49988,-2.61563 0.80213,-4.01063 0.3255,-1.41825 0.68588,-2.97601 1.08113,-4.67326 0.0233,-0.44175 0.0581,-0.86026 0.10462,-1.25551 0.0465,-0.3255 0.0697,-0.63938 0.0697,-0.94163 0.0233,-0.30225 0.0465,-0.48825 0.0697,-0.558 0.0465,-0.39525 0.17434,-0.76725 0.38363,-1.116 0.2325,-0.34875 0.49988,-0.651 0.80213,-0.90675 0.3255,-0.25575 0.66262,-0.45338 1.01137,-0.59288 0.37201,-0.1395 0.73238,-0.20925 1.08113,-0.20925 0.48825,0 0.97651,0.0465 1.46476,0.1395 0.48825,0.0697 0.87187,0.24413 1.15087,0.52313 0.39525,0.4185 0.68588,0.96488 0.87188,1.63913 0.20925,0.67425 0.31388,1.27875 0.31388,1.8135 0,0.20925 -0.10463,0.62775 -0.31388,1.2555 -0.186,0.62775 -0.465,1.27876 -0.837,1.95301 -0.558,2.09251 -1.01138,3.87114 -1.36013,5.33589 -0.34875,1.44151 -0.62775,2.65051 -0.837,3.62701 -0.186,0.95325 -0.3255,1.72051 -0.4185,2.30176 -0.0697,0.558 -0.10463,0.98813 -0.10463,1.29038 0,1.2555 0.20925,2.25525 0.62775,2.99925 0.41851,0.74401 0.93001,1.11601 1.53451,1.11601 0.34875,0 0.744,-0.0697 1.18575,-0.20925 0.465,-0.1395 0.95325,-0.372 1.46476,-0.69751 1.953,-1.209 3.627,-2.52263 5.02201,-3.94088 1.41825,-1.44151 2.62726,-3.02251 3.62701,-4.74301 1.023,-1.74376 1.89488,-3.65027 2.61563,-5.71952 0.74401,-2.06925 1.41826,-4.34776 2.02276,-6.83552 0.0465,-0.16275 0.15109,-0.3255 0.31387,-0.48825 0.18601,-0.16275 0.39526,-0.30225 0.62776,-0.4185 0.25575,-0.11625 0.52312,-0.20925 0.80212,-0.279 0.279,-0.093 0.54638,-0.1395 0.80213,-0.1395 1.23225,0 2.17388,0.33712 2.82488,1.01137 0.67425,0.65101 1.01138,1.53451 1.01138,2.65051 0,0.4185 -0.10462,1.09275 -0.31387,2.02276 -0.20925,0.93 -0.45338,1.91813 -0.73238,2.96438 -0.279,1.023 -0.56963,2.01113 -0.87188,2.96438 -0.279,0.93001 -0.49988,1.61588 -0.66263,2.05763 l -1.674,4.84764 c -0.76725,2.18551 -1.46476,4.19664 -2.09251,6.0334 -0.6045,1.83675 -1.2555,3.55726 -1.953,5.16151 -1.59098,3.10839 -3.54512,5.80986 -5.29152,8.83652 -2.82685,4.55612 -6.49278,6.68286 -8.77834,8.00243 -1.8939,1.09344 -7.59514,4.62829 -11.25881,4.64759 -39.58484,0.2085 -91.04592,-1.19415 -137.409479,-3.18839 -21.021426,-0.9042 -36.996075,-2.41626 -57.075678,-4.15677 z"
         id="path37"
         sodipodi:nodetypes="scsccccccsccssssccccccccscccscccccssscccccccccscssccccccsssss"
         style="fill:#6AD4DD" />
      <path
         id="path35-3"
         style="font-size:71.4242px;font-family:'MV Boli';-inkscape-font-specification:'MV Boli, Normal';text-align:center;text-anchor:middle;fill:#1a1a1a;stroke-width:7.01251;paint-order:markers fill stroke"
         d="m 148.43072,110.50831 c 1.76999,-0.47427 3.51231,-1.15387 5.22889,-2.03859 1.69735,-0.85116 3.30541,-1.9324 4.8224,-3.24491 1.0789,-0.94029 2.22724,-2.041 3.44661,-3.30208 1.20008,-1.22765 2.40752,-2.585842 3.62309,-4.072449 1.19627,-1.453142 2.3449,-2.976921 3.44582,-4.57441 1.07447,-1.590471 2.04611,-3.197286 2.91444,-4.81734 0.84201,-1.612997 1.5156,-3.22236 2.01928,-4.829595 0.48435,-1.573854 0.73332,-3.071745 0.7493,-4.491681 -0.009,-0.56378 -0.0386,-1.150696 -0.0887,-1.760195 -0.0694,-0.575953 -0.18997,-1.179578 -0.35987,-1.813577 -0.15572,-0.581167 -0.36627,-1.104972 -0.63281,-1.571514 -0.26693,-0.46634 -0.52761,-0.863234 -0.78519,-1.190593 -0.80631,-1.001504 -1.69523,-1.783477 -2.66657,-2.344321 -0.97143,-0.560852 -1.96632,-0.944637 -2.98487,-1.153044 -1.0185,-0.208417 -2.01861,-0.29579 -2.99987,-0.259358 -1.00061,0.06988 -1.9389,0.222179 -2.81065,0.45575 -0.58119,0.155757 -1.26331,0.353007 -2.0487,0.591807 -0.7855,0.238736 -1.59704,0.485177 -2.43532,0.73816 -0.83122,0.279354 -1.65328,0.540621 -2.46511,0.786587 -0.80482,0.272269 -1.51032,0.490295 -2.11796,0.653113 -1.03028,0.276065 -2.0417,0.462375 -3.0352,0.558723 -0.98639,0.122743 -1.89268,0.123863 -2.71729,0.005 -0.71358,-0.0937 -1.32761,-0.285645 -1.85315,-0.569031 -1.55278,-2.208331 -1.25279,-4.619841 -0.63553,-7.395934 0.19386,-0.604832 0.41635,-1.250493 0.67996,-1.954172 0.50232,-1.295498 1.16678,-2.776562 1.99457,-4.442452 0.74335,-1.558296 1.63103,-3.00003 2.66361,-4.324404 1.03965,-1.297863 2.1804,-2.481104 3.42293,-3.550214 1.22316,-1.035573 2.52962,-1.924784 3.91708,-2.664587 1.38736,-0.739783 2.80753,-1.304139 4.26054,-1.693447 1.2416,-0.332733 2.45243,-0.514544 3.63274,-0.547634 1.15398,-0.02611 2.28068,0.01049 3.38364,0.111391 1.11004,0.127256 2.19894,0.275472 3.26329,0.44331 1.03784,0.17496 2.04829,0.300713 3.03139,0.377046 0.58121,-0.155779 0.89068,-0.480378 0.92885,-0.971967 0.0188,-0.458082 -0.036,-0.92446 -0.16346,-1.399979 -0.26187,-0.977461 -0.70456,-1.83554 -1.32728,-2.574709 -0.64211,-0.705748 -1.39892,-1.310392 -2.26976,-1.813204 -0.87101,-0.502852 -1.8289,-0.911 -2.87573,-1.225099 -1.06622,-0.280514 -2.15955,-0.454209 -3.28183,-0.521631 -1.12945,-0.0938 -2.2481,-0.09141 -3.35433,0.007 -1.1063,0.09821 -2.16186,0.281958 -3.16573,0.55091 -2.32471,0.622989 -4.48714,1.584332 -6.48867,2.885155 -2.02798,1.307852 -3.86925,2.835984 -5.52499,4.582068 -1.59627,1.683374 -3.02644,3.536874 -4.29645,5.553916 -0.082,-0.333006 -0.12576,-0.65557 -0.21567,-0.991145 -0.2336,-0.871784 -0.54229,-1.707773 -0.92722,-2.510671 -0.38504,-0.80291 -0.7949,-1.430428 -1.22709,-1.880895 -1.55209,-1.566224 -3.05755,-2.591573 -4.51856,-3.077776 -1.45405,-0.459814 -3.06713,-0.453114 -4.83706,0.02119 -0.53206,0.142543 -3.75585,1.297966 -7.25652,5.576427 -2.85379,3.463666 -5.00745,6.663943 -6.98563,10.351376 -1.38598,3.81194 -2.98596,7.457121 -3.38959,11.033813 -0.0532,1.175108 -0.54567,2.358773 -0.55117,3.606094 0.002,1.273744 0.025,2.47137 0.0704,3.591809 0.0454,1.120372 0.13078,1.917118 0.25816,2.392576 0.3398,1.268078 0.99216,2.169072 1.95647,2.703526 0.94501,0.567881 2.11691,0.664845 3.51704,0.289737 0.29054,-0.07791 0.5812,-0.211326 0.8699,-0.402009 0.29587,-0.163892 0.57189,-0.351775 0.82711,-0.56171 0.22877,-0.202866 0.42327,-0.424239 0.58508,-0.665831 0.13528,-0.234435 0.20533,-0.451477 0.20857,-0.65054 -0.0705,-3.010799 2.8e-4,-5.805052 0.21572,-8.382775 0.18891,-2.570637 0.60058,-5.004139 1.23205,-7.296944 0.61259,-2.259175 1.50472,-4.422822 2.67729,-6.492488 1.15333,-2.03621 2.65468,-4.038914 4.50565,-6.007204 0.48211,-0.525672 0.96626,-0.938255 1.45217,-1.238287 0.45945,-0.293096 0.88718,-0.492237 1.28345,-0.598381 0.68684,-0.18406 1.3818,0.08179 2.08382,0.799746 0.70202,0.717979 1.24357,1.791325 1.62577,3.21784 0.092,0.343369 0.18251,0.843815 0.27318,1.499041 0.0713,0.68879 0.14673,1.601776 0.22555,2.741535 0.0596,1.173229 0.11187,2.631474 0.15446,4.375591 -0.12948,2.674441 -0.46453,3.574904 -0.52996,6.428559 0.002,1.361237 0.022,2.766658 0.27758,4.045285 0.12325,0.616841 0.46607,1.26129 0.90916,1.963682 0.39441,0.671142 2.58675,3.143884 5.1653,4.222248 1.40309,0.586735 2.91911,0.903357 4.54524,0.94896 1.63321,0.07209 3.26725,-0.109566 4.90512,-0.548426 0.68688,-0.184056 1.47354,-0.423925 2.35763,-0.717343 0.86467,-0.260063 1.76507,-0.544797 2.70197,-0.852438 0.91752,-0.274101 1.82214,-0.54311 2.71327,-0.810367 0.8911,-0.267146 1.69273,-0.496446 2.40599,-0.687534 1.2153,-0.32557 2.32039,-0.324297 3.31435,0.004 0.99407,0.328266 1.62075,0.979962 1.88272,1.957387 0.17698,0.66043 0.20708,1.404145 0.0882,2.228837 -0.1452,0.831707 -0.47482,1.71298 -0.98989,2.643767 -0.97211,1.76115 -2.10677,3.607619 -3.40107,5.539993 -1.32073,1.939516 -2.77254,3.75732 -4.35617,5.455766 -1.60283,1.731957 -3.30602,3.252024 -5.10847,4.556106 -1.82184,1.337568 -3.71008,2.266628 -5.66494,2.790488 -0.66047,0.17696 -1.29194,0.2471 -1.89634,0.21077 -0.59722,-0.01 -1.20167,-0.0461 -1.81306,-0.10884 -0.60433,-0.0363 -1.21867,-0.0554 -1.84235,-0.0582 -0.65006,0.004 -1.33208,0.10241 -2.04541,0.29358 -0.26419,0.0708 -0.50059,0.18983 -0.71007,0.35915 -0.23586,0.17645 -0.42624,0.41351 -0.57384,0.7079 -0.14051,0.3208 -0.2259,0.69665 -0.25191,1.12834 -0.0259,0.43164 0.0398,0.93861 0.19557,1.51983 0.26895,1.00386 0.71787,1.83131 1.34587,2.48411 0.63504,0.6793 1.39407,1.18421 2.27537,1.51441 0.85483,0.33722 1.79131,0.51177 2.81312,0.52113 1.0289,0.0358 2.07357,-0.0894 3.13024,-0.37258 z"
         sodipodi:nodetypes="scccccccccsscsscscccsccccccccsscccccscsccsscscssccsccccsscscccccccccssscccsscscsccsssscccccscccsccsscccss" />
    </g>
  </g>
</svg>
