<svg id="_0558_transaction" xmlns="http://www.w3.org/2000/svg" viewBox="0 0 500 500" data-imageid="transaction-17" imageName="Transaction" class="illustrations_image" style="width: 166px;"><defs><style>.cls-1_transaction-17,.cls-2_transaction-17{fill:#fff;}.cls-3_transaction-17{fill:#f4a28c;}.cls-4_transaction-17{fill:#a5a5a5;}.cls-5_transaction-17,.cls-6_transaction-17{fill:#e6e6e6;}.cls-6_transaction-17{opacity:.3;}.cls-7_transaction-17{fill:none;opacity:.08;}.cls-2_transaction-17{opacity:.46;}.cls-8_transaction-17{fill:#24285b;}.cls-9_transaction-17,.cls-10_transaction-17{fill:#000001;}.cls-10_transaction-17{opacity:.1;}.cls-11_transaction-17{fill:#ffd200;}.cls-12_transaction-17{fill:#68e1fd;}</style></defs><g id="hand2_transaction-17"><circle class="cls-6_transaction-17" cx="386.11" cy="322.19" r="106.2"/><path class="cls-3_transaction-17" d="m451.95,293.96s5.1-63.66-27.64-69.04c-32.74-5.38-36.82,87.37-8.77,88.76,28.05,1.39,36.4-19.71,36.4-19.71Z"/><path class="cls-10_transaction-17" d="m415.54,313.67c28.05,1.39,36.4-19.71,36.4-19.71,0,0,5.1-63.66-27.64-69.04"/><path class="cls-4_transaction-17" d="m305.62,315.12h121.64s0-97,0-97h0c0-4.67-3.51-8.45-7.84-8.45h-113.8c-6.01,0-10.88,5.26-10.88,11.74v81.98c0,6.48,4.87,11.74,10.88,11.74Z"/><rect class="cls-11_transaction-17" x="296.99" y="166.08" width="63.28" height="113.86" transform="translate(683.61 401.12) rotate(172.48)"/><rect class="cls-2_transaction-17" x="302.35" y="172.15" width="52.55" height="101.73" transform="translate(683.61 401.12) rotate(172.48)"/><rect class="cls-11_transaction-17" x="329.36" y="146.73" width="63.28" height="113.86" transform="translate(745.54 358.34) rotate(172.48)"/><rect class="cls-2_transaction-17" x="334.73" y="152.79" width="52.55" height="101.73" transform="translate(745.54 358.34) rotate(172.48)"/><rect class="cls-11_transaction-17" x="358.55" y="162.59" width="63.28" height="113.86" transform="translate(743.9 493.98) rotate(-171.55)"/><rect class="cls-2_transaction-17" x="363.92" y="168.65" width="52.55" height="101.73" transform="translate(743.9 493.98) rotate(-171.55)"/><path class="cls-5_transaction-17" d="m427.26,218.11v105.47h-105.86c-6.17,0-11.62-3.36-14.86-8.46-1.99-3.13-3.15-6.9-3.15-10.97v-66.62c0-3.39.8-6.59,2.23-9.35,3.06-6.01,8.98-10.07,15.78-10.07h105.86Z"/><path class="cls-8_transaction-17" d="m301.52,259.84h43.25v22.03h-43.25c-4.39,0-7.95-3.56-7.95-7.95v-6.13c0-4.39,3.56-7.95,7.95-7.95Z" transform="translate(638.33 541.7) rotate(180)"/><circle class="cls-12_transaction-17 targetColor" cx="330.47" cy="270.85" r="5.6"/><path class="cls-10_transaction-17" d="m426.02,315.13c-.03,2.88-.09,5.72-.16,8.46h-28.7c.59-2.85,1.35-5.71,2.39-8.46.98-2.64,2.19-5.17,3.68-7.54,2.41-3.83,7.21-20.81,4.12-34.66-.26-1.24-.59-2.44-.99-3.6-.3-.86-.52-1.69-.68-2.46-1.1-5.28.68-8.82,3.06-11.16,1.76-1.74,3.86-2.81,5.36-3.4,1.18-.48,2-.66,2-.66,8.6,5.59,10.2,36.74,9.92,63.49Z"/><path class="cls-3_transaction-17" d="m444.5,279.83s-8.87-32.11-18.69-35.12c-8.11-2.48-16.1,11.97-6.93,32.75,3.77,8.53,3.77,18.19-.18,26.63-3.27,6.98-5.47,16.21-1.98,26.03,7.33,20.65,27.43,18.35,35.52.43,8.09-17.93,6.66-26.43-7.74-50.71Z"/><polygon class="cls-12_transaction-17 targetColor" points="412.14 332.27 420.89 453.42 492.7 439.64 456.59 318.79 412.14 332.27"/><polygon class="cls-10_transaction-17" points="448.92 448.04 433.36 325.84 412.14 332.27 420.89 453.42 448.92 448.04"/></g><path id="line_transaction-17" class="cls-4_transaction-17" d="m207.89,232.65c-.53,0-1.04-.28-1.32-.77-.41-.72-.16-1.65.57-2.06,0,0,.49-.28,1.43-.74.75-.36,1.65-.05,2.02.7.36.75.05,1.65-.7,2.02-.81.39-1.24.63-1.26.65-.23.13-.49.2-.74.2Zm71.85-1.02c-.19,0-.38-.04-.57-.11-.46-.19-.92-.37-1.38-.55-.78-.3-1.16-1.18-.86-1.96.3-.78,1.18-1.16,1.95-.86.47.18.95.37,1.42.57.77.31,1.15,1.19.83,1.97-.24.59-.8.94-1.4.94Zm-63.51-2.51c-.63,0-1.21-.39-1.43-1.02-.27-.79.15-1.65.93-1.92.47-.16.96-.32,1.46-.49.8-.25,1.65.18,1.9.97.26.79-.18,1.64-.97,1.9-.49.16-.95.31-1.41.47-.16.06-.33.08-.49.08Zm54.97-.52c-.14,0-.29-.02-.44-.07-.48-.14-.96-.29-1.43-.42-.8-.23-1.26-1.07-1.03-1.87.23-.8,1.06-1.26,1.87-1.03.49.14.97.29,1.47.43.8.24,1.25,1.08,1.01,1.88-.2.65-.8,1.07-1.45,1.07Zm-46.26-1.94c-.69,0-1.31-.48-1.47-1.18-.18-.81.33-1.62,1.14-1.8.49-.11.99-.22,1.5-.32.82-.17,1.62.36,1.78,1.17.17.82-.36,1.62-1.17,1.78-.49.1-.98.21-1.45.31-.11.03-.22.04-.33.04Zm37.48-.29c-.1,0-.2,0-.3-.03-.49-.1-.98-.19-1.46-.29-.82-.15-1.36-.94-1.2-1.76.15-.82.94-1.36,1.76-1.21.5.09,1,.19,1.5.29.82.17,1.35.96,1.18,1.78-.14.72-.78,1.21-1.48,1.21Zm-28.55-1.24c-.76,0-1.41-.56-1.5-1.33-.1-.83.49-1.58,1.32-1.68.5-.06,1.01-.12,1.53-.17.84-.08,1.57.52,1.65,1.35.08.83-.52,1.57-1.35,1.65-.5.05-.99.1-1.47.16-.06,0-.12.01-.18.01Zm19.59-.14c-.05,0-.1,0-.16,0-.49-.05-.99-.1-1.48-.14-.83-.07-1.45-.8-1.37-1.63.07-.83.78-1.45,1.63-1.38.51.04,1.02.09,1.53.14.83.08,1.43.83,1.35,1.66-.08.78-.74,1.36-1.5,1.36Zm-10.55-.46c-.82,0-1.5-.66-1.51-1.49-.01-.83.65-1.52,1.49-1.53.45,0,.91-.01,1.37-.01h.16c.83,0,1.51.68,1.51,1.51s-.68,1.51-1.51,1.51h-.16c-.45,0-.89,0-1.33.01h-.02Z"/><g id="hand1_transaction-17"><circle class="cls-6_transaction-17" cx="123.67" cy="322.19" r="106.2"/><path class="cls-3_transaction-17" d="m55.17,309.4s11.99-56.41,42.16-56.41,46.22,88.67-27.17,98.32l-14.99-41.91Z"/><path class="cls-10_transaction-17" d="m55.17,309.4s11.99-56.41,42.16-56.41,46.22,88.67-27.17,98.32l-14.99-41.91Z"/><rect class="cls-5_transaction-17" x="81.57" y="150.39" width="115.46" height="205.2"/><rect class="cls-1_transaction-17" x="90.95" y="167.07" width="96.69" height="153.5"/><rect class="cls-8_transaction-17" x="110.46" y="275.83" width="55.95" height="23.21"/><path class="cls-10_transaction-17" d="m116.46,270.15s12.84,7.71,7.91,19.14c-4.93,11.44-19.96,18.39-20.18,33.41-.22,15.03,0,32.88,0,32.88h-22.61v-35.01l34.89-50.43Z"/><path class="cls-3_transaction-17" d="m78.8,288.45s23.29-23.82,33.34-21.7c8.3,1.75,8.31,18.26-9.77,32.01-7.42,5.64-12.1,14.1-12.72,23.4-.51,7.69-3.05,16.83-10.85,23.74-16.41,14.53-28.58,1.87-26.99-17.73,1.59-19.61,2.65-25.43,26.99-39.72Z"/><polygon class="cls-12_transaction-17 targetColor" points="87.86 342.77 79.11 463.92 7.3 450.14 43.41 329.29 87.86 342.77"/><polygon class="cls-10_transaction-17" points="51.08 458.54 66.64 336.34 87.86 342.77 79.11 463.92 51.08 458.54"/><circle class="cls-4_transaction-17" cx="113.98" cy="158.48" r="3.52"/><rect class="cls-4_transaction-17" x="124.37" y="157.26" width="37.17" height="3.2" rx="1.13" ry="1.13"/><circle class="cls-4_transaction-17" cx="136.57" cy="337.34" r="11.23"/><g class="cls-7_transaction-17"><circle class="cls-9_transaction-17" cx="138.44" cy="224.52" r="31.3"/></g><circle class="cls-11_transaction-17" cx="138.44" cy="224.52" r="31.3"/><path class="cls-1_transaction-17" d="m139.45,210.52c.88,0,1.15.31,1.15,1.19v1.89c3.54.5,5.58,2.27,7.08,5.35.46.92.27,1.42-.77,1.89l-1.89.85c-.89.42-1.31.23-1.81-.69-1.04-2-2.31-2.96-4.93-2.96-3.27,0-4.77.96-4.77,3.16,0,1.42,1.31,2.31,2.66,2.58.65.15,1.58.31,2.77.42,2.16.19,3.23.35,5.12,1,.96.35,1.69.73,2.27,1.23,1.08,1,2.04,2.93,2.04,5.39,0,4.19-2.81,7.04-7.77,7.77v2c0,.88-.27,1.19-1.15,1.19h-2.12c-.89,0-1.19-.31-1.19-1.19v-1.96c-3.85-.5-6.43-2.46-7.7-5.93-.31-.85,0-1.42.89-1.77l1.89-.69c.96-.35,1.39-.11,1.81.85.85,2.16,2.58,3.23,5.2,3.23,3.54,0,5.31-1.12,5.31-3.39,0-1.19-.54-1.92-1.65-2.39-1.12-.42-2.08-.58-3.81-.73-2.12-.19-3.31-.42-5.16-1.12-.92-.35-1.65-.77-2.23-1.27-1.15-1.04-2.08-2.89-2.08-5.23,0-4.16,2.62-6.93,7.54-7.58v-1.89c0-.89.31-1.19,1.19-1.19h2.12Z"/></g><polygon class="cls-5_transaction-17" points="304.11 55.08 271.2 36.08 271.2 48.2 195.89 48.2 195.89 61.96 271.2 61.96 271.2 74.08 304.11 55.08"/><polygon class="cls-5_transaction-17" points="195.89 112.24 228.8 131.24 228.8 119.12 304.11 119.12 304.11 105.35 228.8 105.35 228.8 93.24 195.89 112.24"/></svg>